  0
SECTION
  2
HEADER
  9
$ACADVER
  1
AC1024
  9
$ACADMAINTVER
 70
6
  9
$DWGCODEPAGE
  3
ANSI_1252
  9
$LASTSAVEDBY
  1
unknown
  9
$INSBASE
 10
0.0
 20
0.0
 30
0.0
  9
$EXTMIN
 10
1e+20
 20
1e+20
 30
1e+20
  9
$EXTMAX
 10
-1e+20
 20
-1e+20
 30
-1e+20
  9
$LIMMIN
 10
0.0
 20
0.0
  9
$LIMMAX
 10
12.0
 20
9.0
  9
$ORTHOMODE
 70
0
  9
$REGENMODE
 70
1
  9
$FILLMODE
 70
1
  9
$QTEXTMODE
 70
0
  9
$MIRRTEXT
 70
0
  9
$LTSCALE
 40
1.0
  9
$ATTMODE
 70
1
  9
$TEXTSIZE
 40
0.2
  9
$TRACEWID
 40
0.05
  9
$TEXTSTYLE
  7
Notes
  9
$CLAYER
  8
0
  9
$CELTYPE
  6
ByLayer
  9
$CECOLOR
 62
256
  9
$CELTSCALE
 40
1.0
  9
$DISPSILH
 70
0
  9
$DIMSCALE
 40
1.0
  9
$DIMASZ
 40
3.0
  9
$DIMEXO
 40
1.5
  9
$DIMDLI
 40
6.0
  9
$DIMRND
 40
0.0
  9
$DIMDLE
 40
0.0
  9
$DIMEXE
 40
3.0
  9
$DIMTP
 40
0.0
  9
$DIMTM
 40
0.0
  9
$DIMTXT
 40
3.0
  9
$DIMCEN
 40
3.0
  9
$DIMTSZ
 40
0.0
  9
$DIMTOL
 70
0
  9
$DIMLIM
 70
0
  9
$DIMTIH
 70
0
  9
$DIMTOH
 70
0
  9
$DIMSE1
 70
0
  9
$DIMSE2
 70
0
  9
$DIMTAD
 70
1
  9
$DIMZIN
 70
3
  9
$DIMBLK
  1

  9
$DIMASO
 70
1
  9
$DIMSHO
 70
1
  9
$DIMPOST
  1

  9
$DIMAPOST
  1

  9
$DIMALT
 70
0
  9
$DIMALTD
 70
2
  9
$DIMALTF
 40
25.4
  9
$DIMLFAC
 40
1.0
  9
$DIMTOFL
 70
0
  9
$DIMTVP
 40
0.0
  9
$DIMTIX
 70
0
  9
$DIMSOXD
 70
0
  9
$DIMSAH
 70
0
  9
$DIMBLK1
  1

  9
$DIMBLK2
  1

  9
$DIMSTYLE
  2
Civil-Metric
  9
$DIMCLRD
 70
0
  9
$DIMCLRE
 70
0
  9
$DIMCLRT
 70
0
  9
$DIMTFAC
 40
1.0
  9
$DIMGAP
 40
2.0
  9
$DIMJUST
 70
0
  9
$DIMSD1
 70
0
  9
$DIMSD2
 70
0
  9
$DIMTOLJ
 70
1
  9
$DIMTZIN
 70
0
  9
$DIMALTZ
 70
0
  9
$DIMALTTZ
 70
0
  9
$DIMUPT
 70
0
  9
$DIMDEC
 70
2
  9
$DIMTDEC
 70
2
  9
$DIMALTU
 70
2
  9
$DIMALTTD
 70
2
  9
$DIMTXSTY
  7
Standard
  9
$DIMAUNIT
 70
0
  9
$DIMADEC
 70
2
  9
$DIMALTRND
 40
0.0
  9
$DIMAZIN
 70
2
  9
$DIMDSEP
 70
46
  9
$DIMATFIT
 70
3
  9
$DIMFRAC
 70
1
  9
$DIMLDRBLK
  1

  9
$DIMLUNIT
 70
2
  9
$DIMLWD
 70
-2
  9
$DIMLWE
 70
-2
  9
$DIMTMOVE
 70
0
  9
$DIMFXL
 40
1.0
  9
$DIMFXLON
 70
0
  9
$DIMJOGANG
 40
0.785398163397
  9
$DIMTFILL
 70
0
  9
$DIMTFILLCLR
 70
0
  9
$DIMARCSYM
 70
0
  9
$DIMLTYPE
  6

  9
$DIMLTEX1
  6

  9
$DIMLTEX2
  6

  9
$DIMTXTDIRECTION
 70
0
  9
$LUNITS
 70
2
  9
$LUPREC
 70
4
  9
$SKETCHINC
 40
0.1
  9
$FILLETRAD
 40
0.0
  9
$AUNITS
 70
4
  9
$AUPREC
 70
5
  9
$MENU
  1
.
  9
$ELEVATION
 40
0.0
  9
$PELEVATION
 40
0.0
  9
$THICKNESS
 40
0.0
  9
$LIMCHECK
 70
0
  9
$CHAMFERA
 40
0.0
  9
$CHAMFERB
 40
0.0
  9
$CHAMFERC
 40
0.0
  9
$CHAMFERD
 40
0.0
  9
$SKPOLY
 70
0
  9
$TDCREATE
 40
2458714.48469
  9
$TDUPDATE
 40
2458714.48469
  9
$TDINDWG
 40
0.0
  9
$TDUSRTIMER
 40
0.0
  9
$USRTIMER
 70
1
  9
$ANGBASE
 50
0.0
  9
$ANGDIR
 70
0
  9
$PDMODE
 70
0
  9
$PDSIZE
 40
0.0
  9
$PLINEWID
 40
0.0
  9
$SPLFRAME
 70
0
  9
$SPLINETYPE
 70
6
  9
$SPLINESEGS
 70
8
  9
$HANDSEED
  5
732
  9
$SURFTAB1
 70
6
  9
$SURFTAB2
 70
6
  9
$SURFTYPE
 70
6
  9
$SURFU
 70
6
  9
$SURFV
 70
6
  9
$UCSBASE
  2

  9
$UCSNAME
  2

  9
$UCSORG
 10
0.0
 20
0.0
 30
0.0
  9
$UCSXDIR
 10
1.0
 20
0.0
 30
0.0
  9
$UCSYDIR
 10
0.0
 20
1.0
 30
0.0
  9
$UCSORTHOREF
  2

  9
$UCSORTHOVIEW
 70
0
  9
$UCSORGTOP
 10
0.0
 20
0.0
 30
0.0
  9
$UCSORGBOTTOM
 10
0.0
 20
0.0
 30
0.0
  9
$UCSORGLEFT
 10
0.0
 20
0.0
 30
0.0
  9
$UCSORGRIGHT
 10
0.0
 20
0.0
 30
0.0
  9
$UCSORGFRONT
 10
0.0
 20
0.0
 30
0.0
  9
$UCSORGBACK
 10
0.0
 20
0.0
 30
0.0
  9
$PUCSBASE
  2

  9
$PUCSNAME
  2

  9
$PUCSORG
 10
0.0
 20
0.0
 30
0.0
  9
$PUCSXDIR
 10
1.0
 20
0.0
 30
0.0
  9
$PUCSYDIR
 10
0.0
 20
1.0
 30
0.0
  9
$PUCSORTHOREF
  2

  9
$PUCSORTHOVIEW
 70
0
  9
$PUCSORGTOP
 10
0.0
 20
0.0
 30
0.0
  9
$PUCSORGBOTTOM
 10
0.0
 20
0.0
 30
0.0
  9
$PUCSORGLEFT
 10
0.0
 20
0.0
 30
0.0
  9
$PUCSORGRIGHT
 10
0.0
 20
0.0
 30
0.0
  9
$PUCSORGFRONT
 10
0.0
 20
0.0
 30
0.0
  9
$PUCSORGBACK
 10
0.0
 20
0.0
 30
0.0
  9
$USERI1
 70
0
  9
$USERI2
 70
0
  9
$USERI3
 70
0
  9
$USERI4
 70
0
  9
$USERI5
 70
0
  9
$USERR1
 40
0.0
  9
$USERR2
 40
0.0
  9
$USERR3
 40
0.0
  9
$USERR4
 40
0.0
  9
$USERR5
 40
0.0
  9
$WORLDVIEW
 70
1
  9
$SHADEDGE
 70
3
  9
$SHADEDIF
 70
70
  9
$TILEMODE
 70
1
  9
$MAXACTVP
 70
64
  9
$PINSBASE
 10
0.0
 20
0.0
 30
0.0
  9
$PLIMCHECK
 70
0
  9
$PEXTMIN
 10
0.628866766397
 20
0.799999952316
 30
0.0
  9
$PEXTMAX
 10
9.02886638493
 20
7.19999957085
 30
0.0
  9
$PLIMMIN
 10
-0.700541819174
 20
-0.228100386192
  9
$PLIMMAX
 10
10.2994579405
 20
8.27189937351
  9
$UNITMODE
 70
0
  9
$VISRETAIN
 70
1
  9
$PLINEGEN
 70
0
  9
$PSLTSCALE
 70
1
  9
$TREEDEPTH
 70
3020
  9
$CMLSTYLE
  2
Standard
  9
$CMLJUST
 70
0
  9
$CMLSCALE
 40
1.0
  9
$PROXYGRAPHICS
 70
1
  9
$MEASUREMENT
 70
1
  9
$CELWEIGHT
370
-1
  9
$ENDCAPS
280
0
  9
$JOINSTYLE
280
0
  9
$LWDISPLAY
290
0
  9
$INSUNITS
 70
4
  9
$HYPERLINKBASE
  1

  9
$STYLESHEET
  1

  9
$XEDIT
290
1
  9
$CEPSNTYPE
380
0
  9
$PSTYLEMODE
290
1
  9
$FINGERPRINTGUID
  2
DCC60E88-C19B-11E9-9C68-4CD1A152013C
  9
$VERSIONGUID
  2
DCC60E8A-C19B-11E9-9C68-4CD1A152013C
  9
$EXTNAMES
290
1
  9
$PSVPSCALE
 40
0.0
  9
$OLESTARTUP
290
0
  9
$SORTENTS
280
127
  9
$INDEXCTL
280
0
  9
$HIDETEXT
280
1
  9
$XCLIPFRAME
280
0
  9
$HALOGAP
280
0
  9
$OBSCOLOR
 70
257
  9
$OBSLTYPE
280
0
  9
$INTERSECTIONDISPLAY
280
0
  9
$INTERSECTIONCOLOR
 70
257
  9
$DIMASSOC
280
2
  9
$PROJECTNAME
  1

  9
$CAMERADISPLAY
290
0
  9
$LENSLENGTH
 40
50.0
  9
$CAMERAHEIGHT
 40
0.0
  9
$STEPSPERSEC
 40
2.0
  9
$STEPSIZE
 40
6.0
  9
$3DDWFPREC
 40
2.0
  9
$PSOLWIDTH
 40
0.25
  9
$PSOLHEIGHT
 40
4.0
  9
$LOFTANG1
 40
1.57079632679
  9
$LOFTANG2
 40
1.57079632679
  9
$LOFTMAG1
 40
0.0
  9
$LOFTMAG2
 40
0.0
  9
$LOFTPARAM
 70
7
  9
$LOFTNORMALS
280
1
  9
$LATITUDE
 40
37.795
  9
$LONGITUDE
 40
-122.394
  9
$NORTHDIRECTION
 40
0.0
  9
$TIMEZONE
 70
-8000
  9
$LIGHTGLYPHDISPLAY
280
1
  9
$TILEMODELIGHTSYNCH
280
1
  9
$CMATERIAL
347
96
  9
$SOLIDHIST
280
1
  9
$SHOWHIST
280
1
  9
$DWFFRAME
280
2
  9
$DGNFRAME
280
0
  9
$REALWORLDSCALE
290
1
  9
$INTERFERECOLOR
 62
1
  9
$INTERFEREOBJVS
345
A3
  9
$INTERFEREVPVS
346
A0
  9
$CSHADOW
280
0
  9
$SHADOWPLANELOCATION
 40
0.0
  0
ENDSEC
  0
SECTION
  2
CLASSES
  0
CLASS
  1
ACDBDICTIONARYWDFLT
  2
AcDbDictionaryWithDefault
  3
ObjectDBX Classes
 90
0
 91
0
280
0
281
0
  0
CLASS
  1
DICTIONARYVAR
  2
AcDbDictionaryVar
  3
ObjectDBX Classes
 90
0
 91
0
280
0
281
0
  0
CLASS
  1
TABLESTYLE
  2
AcDbTableStyle
  3
ObjectDBX Classes
 90
4095
 91
0
280
0
281
0
  0
CLASS
  1
MATERIAL
  2
AcDbMaterial
  3
ObjectDBX Classes
 90
1153
 91
0
280
0
281
0
  0
CLASS
  1
VISUALSTYLE
  2
AcDbVisualStyle
  3
ObjectDBX Classes
 90
4095
 91
0
280
0
281
0
  0
CLASS
  1
SCALE
  2
AcDbScale
  3
ObjectDBX Classes
 90
1153
 91
0
280
0
281
0
  0
CLASS
  1
MLEADERSTYLE
  2
AcDbMLeaderStyle
  3
ACDB_MLEADERSTYLE_CLASS
 90
4095
 91
0
280
0
281
0
  0
CLASS
  1
CELLSTYLEMAP
  2
AcDbCellStyleMap
  3
ObjectDBX Classes
 90
1152
 91
0
280
0
281
0
  0
CLASS
  1
EXACXREFPANELOBJECT
  2
ExAcXREFPanelObject
  3
EXAC_ESW
 90
1025
 91
0
280
0
281
0
  0
CLASS
  1
NPOCOLLECTION
  2
AcDbImpNonPersistentObjectsCollection
  3
ObjectDBX Classes
 90
1153
 91
0
280
0
281
0
  0
CLASS
  1
LAYER_INDEX
  2
AcDbLayerIndex
  3
ObjectDBX Classes
 90
0
 91
0
280
0
281
0
  0
CLASS
  1
SPATIAL_INDEX
  2
AcDbSpatialIndex
  3
ObjectDBX Classes
 90
0
 91
0
280
0
281
0
  0
CLASS
  1
IDBUFFER
  2
AcDbIdBuffer
  3
ObjectDBX Classes
 90
0
 91
0
280
0
281
0
  0
CLASS
  1
DIMASSOC
  2
AcDbDimAssoc
  3
"AcDbDimAssoc|Product Desc:     AcDim ARX App For Dimension|Company:          Autodesk, Inc.|WEB Address:      www.autodesk.com"
 90
0
 91
0
280
0
281
0
  0
CLASS
  1
IMAGEDEF
  2
AcDbRasterImageDef
  3
ISM
 90
0
 91
0
280
0
281
0
  0
CLASS
  1
RASTERVARIABLES
  2
AcDbRasterVariables
  3
ISM
 90
0
 91
0
280
0
281
0
  0
CLASS
  1
IMAGEDEF_REACTOR
  2
AcDbRasterImageDefReactor
  3
ISM
 90
1
 91
0
280
0
281
0
  0
CLASS
  1
IMAGE
  2
AcDbRasterImage
  3
ISM
 90
2175
 91
0
280
0
281
1
  0
CLASS
  1
PDFDEFINITION
  2
AcDbPdfDefinition
  3
ObjectDBX Classes
 90
1153
 91
0
280
0
281
0
  0
CLASS
  1
PDFUNDERLAY
  2
AcDbPdfReference
  3
ObjectDBX Classes
 90
4095
 91
0
280
0
281
1
  0
CLASS
  1
DWFDEFINITION
  2
AcDbDwfDefinition
  3
ObjectDBX Classes
 90
1153
 91
0
280
0
281
0
  0
CLASS
  1
DWFUNDERLAY
  2
AcDbDwfReference
  3
ObjectDBX Classes
 90
1153
 91
0
280
0
281
1
  0
CLASS
  1
DGNDEFINITION
  2
AcDbDgnDefinition
  3
ObjectDBX Classes
 90
1153
 91
0
280
0
281
0
  0
CLASS
  1
DGNUNDERLAY
  2
AcDbDgnReference
  3
ObjectDBX Classes
 90
1153
 91
0
280
0
281
1
  0
ENDSEC
  0
SECTION
  2
TABLES
  0
TABLE
  2
VPORT
  5
8
330
0
100
AcDbSymbolTable
 70
0
  0
ENDTAB
  0
TABLE
  2
LTYPE
  5
5F
330
0
100
AcDbSymbolTable
 70
7
  0
LTYPE
  5
14
330
5F
100
AcDbSymbolTableRecord
100
AcDbLinetypeTableRecord
  2
ByBlock
 70
0
  3

 72
65
 73
0
 40
0.0
  0
LTYPE
  5
15
330
5F
100
AcDbSymbolTableRecord
100
AcDbLinetypeTableRecord
  2
ByLayer
 70
0
  3

 72
65
 73
0
 40
0.0
  0
LTYPE
  5
16
330
5F
100
AcDbSymbolTableRecord
100
AcDbLinetypeTableRecord
  2
Continuous
 70
0
  3
Solid line
 72
65
 73
0
 40
0.0
  0
LTYPE
  5
1B1
330
5F
100
AcDbSymbolTableRecord
100
AcDbLinetypeTableRecord
  2
CENTER
 70
0
  3
Center ____ _ ____ _ ____ _ ____ _ ____ _ ____
 72
65
 73
4
 40
2.0
 49
1.25
 74
0
 49
-0.25
 74
0
 49
0.25
 74
0
 49
-0.25
 74
0
  0
LTYPE
  5
1B2
330
5F
100
AcDbSymbolTableRecord
100
AcDbLinetypeTableRecord
  2
DASHED
 70
0
  3
Dashed __ __ __ __ __ __ __ __ __ __ __ __ __ _
 72
65
 73
2
 40
0.75
 49
0.5
 74
0
 49
-0.25
 74
0
  0
LTYPE
  5
1B3
330
5F
100
AcDbSymbolTableRecord
100
AcDbLinetypeTableRecord
  2
PHANTOM
 70
0
  3
Phantom ______  __  __  ______  __  __  ______
 72
65
 73
6
 40
2.5
 49
1.25
 74
0
 49
-0.25
 74
0
 49
0.25
 74
0
 49
-0.25
 74
0
 49
0.25
 74
0
 49
-0.25
 74
0
  0
LTYPE
  5
39E
330
5F
100
AcDbSymbolTableRecord
100
AcDbLinetypeTableRecord
  2
HIDDEN
 70
0
  3
Hidden __ __ __ __ __ __ __ __ __ __ __ __ __ __
 72
65
 73
2
 40
9.525
 49
6.35
 74
0
 49
-3.175
 74
0
  0
ENDTAB
  0
TABLE
  2
LAYER
  5
2
330
0
100
AcDbSymbolTable
 70
5
  0
LAYER
  5
10
330
2
100
AcDbSymbolTableRecord
100
AcDbLayerTableRecord
  2
0
 70
0
 62
7
  6
Continuous
370
-3
390
4E8
  0
LAYER
  5
1B4
330
2
100
AcDbSymbolTableRecord
100
AcDbLayerTableRecord
  2
View Port
 70
0
 62
7
  6
Continuous
290
0
370
-3
390
4E8
  0
LAYER
  5
21D
330
2
100
AcDbSymbolTableRecord
100
AcDbLayerTableRecord
  2
Defpoints
 70
0
 62
7
  6
Continuous
290
0
370
-3
390
4E8
  0
LAYER
  5
570
330
2
100
AcDbSymbolTableRecord
100
AcDbLayerTableRecord
  2
CUT
 70
0
 62
7
  6
Continuous
290
1
390
4E9
  0
LAYER
  5
571
330
2
100
AcDbSymbolTableRecord
100
AcDbLayerTableRecord
  2
SCAN
 70
0
 62
5
  6
Continuous
290
1
390
4E9
  0
ENDTAB
  0
TABLE
  2
STYLE
  5
3
330
0
100
AcDbSymbolTable
 70
3
  0
STYLE
  5
11
330
3
100
AcDbSymbolTableRecord
100
AcDbTextStyleTableRecord
  2
Standard
 70
0
 40
0.0
 41
1.0
 50
0.0
 71
0
 42
0.2
  3
arial.ttf
  4

  0
STYLE
  5
DC
330
3
100
AcDbSymbolTableRecord
100
AcDbTextStyleTableRecord
  2
Annotative
 70
0
 40
0.0
 41
1.0
 50
0.0
 71
0
 42
0.2
  3
arial.ttf
  4

  0
STYLE
  5
178
330
3
100
AcDbSymbolTableRecord
100
AcDbTextStyleTableRecord
  2
Notes
 70
0
 40
3.0
 41
1.0
 50
0.0
 71
0
 42
0.2
  3
arial.ttf
  4

  0
ENDTAB
  0
TABLE
  2
VIEW
  5
6
330
0
100
AcDbSymbolTable
 70
0
  0
ENDTAB
  0
TABLE
  2
UCS
  5
7
330
0
100
AcDbSymbolTable
 70
0
  0
ENDTAB
  0
TABLE
  2
APPID
  5
9
330
0
100
AcDbSymbolTable
 70
11
  0
APPID
  5
12
330
9
100
AcDbSymbolTableRecord
100
AcDbRegAppTableRecord
  2
ACAD
 70
0
  0
APPID
  5
DD
330
9
100
AcDbSymbolTableRecord
100
AcDbRegAppTableRecord
  2
AcadAnnoPO
 70
0
  0
APPID
  5
DE
330
9
100
AcDbSymbolTableRecord
100
AcDbRegAppTableRecord
  2
AcadAnnotative
 70
0
  0
APPID
  5
DF
330
9
100
AcDbSymbolTableRecord
100
AcDbRegAppTableRecord
  2
ACAD_DSTYLE_DIMJAG
 70
0
  0
APPID
  5
E0
330
9
100
AcDbSymbolTableRecord
100
AcDbRegAppTableRecord
  2
ACAD_DSTYLE_DIMTALN
 70
0
  0
APPID
  5
107
330
9
100
AcDbSymbolTableRecord
100
AcDbRegAppTableRecord
  2
ACAD_MLEADERVER
 70
0
  0
APPID
  5
1B5
330
9
100
AcDbSymbolTableRecord
100
AcDbRegAppTableRecord
  2
AcAecLayerStandard
 70
0
  0
APPID
  5
1BA
330
9
100
AcDbSymbolTableRecord
100
AcDbRegAppTableRecord
  2
ACAD_EXEMPT_FROM_CAD_STANDARDS
 70
0
  0
APPID
  5
237
330
9
100
AcDbSymbolTableRecord
100
AcDbRegAppTableRecord
  2
ACAD_DSTYLE_DIMBREAK
 70
0
  0
APPID
  5
28E
330
9
100
AcDbSymbolTableRecord
100
AcDbRegAppTableRecord
  2
ACAD_PSEXT
 70
0
  0
APPID
  5
4C4
330
9
100
AcDbSymbolTableRecord
100
AcDbRegAppTableRecord
  2
HATCHBACKGROUNDCOLOR
 70
0
  0
ENDTAB
  0
TABLE
  2
DIMSTYLE
  5
A
330
0
100
AcDbSymbolTable
 70
3
100
AcDbDimStyleTable
 71
3
340
242
340
27
340
E1
  0
DIMSTYLE
105
27
330
A
100
AcDbSymbolTableRecord
100
AcDbDimStyleTableRecord
  2
Standard
 70
0
 41
3.0
 42
2.0
 43
9.0
 44
5.0
140
3.0
141
2.0
147
2.0
340
11
1001
ACAD_DSTYLE_DIMJAG
1070
388
1040
38.0
1001
ACAD_DSTYLE_DIMBREAK
1070
391
1040
90.0
1001
ACAD_DSTYLE_DIMTALN
1070
392
1070
0
  0
DIMSTYLE
105
E1
330
A
100
AcDbSymbolTableRecord
100
AcDbDimStyleTableRecord
  2
Annotative
 70
0
 40
0.0
 41
3.0
 42
2.5
 43
10.0
 44
5.0
140
3.0
141
2.0
147
2.0
340
11
1001
AcadAnnotative
1000
AnnotativeData
1002
{
1070
1
1070
1
1002
}
1001
ACAD_DSTYLE_DIMJAG
1070
388
1040
38.0
1001
ACAD_DSTYLE_DIMBREAK
1070
391
1040
90.0
1001
ACAD_DSTYLE_DIMTALN
1070
392
1070
0
  0
DIMSTYLE
105
242
330
A
100
AcDbSymbolTableRecord
100
AcDbDimStyleTableRecord
  2
Civil-Metric
 70
0
 41
3.0
 42
1.5
 43
6.0
 44
3.0
 73
0
 74
0
 77
1
 78
3
 79
2
140
3.0
141
3.0
147
2.0
179
2
271
2
272
2
276
1
340
11
1001
ACAD_DSTYLE_DIMBREAK
1070
391
1040
3.0
1001
ACAD_DSTYLE_DIMJAG
1070
388
1040
38.0
1001
ACAD_DSTYLE_DIMTALN
1070
392
1070
0
  0
ENDTAB
  0
TABLE
  2
BLOCK_RECORD
  5
1
330
0
100
AcDbSymbolTable
 70
4
  0
BLOCK_RECORD
  5
1F
330
1
100
AcDbSymbolTableRecord
100
AcDbBlockTableRecord
  2
*Model_Space
340
4ED
 70
0
280
1
281
0
  0
BLOCK_RECORD
  5
58
330
1
100
AcDbSymbolTableRecord
100
AcDbBlockTableRecord
  2
*Paper_Space
340
4EE
 70
0
280
1
281
0
  0
BLOCK_RECORD
  5
238
330
1
100
AcDbSymbolTableRecord
100
AcDbBlockTableRecord
  2
_ArchTick
340
0
 70
0
280
1
281
0
  0
BLOCK_RECORD
  5
23C
330
1
100
AcDbSymbolTableRecord
100
AcDbBlockTableRecord
  2
_Open30
340
0
 70
0
280
1
281
0
  0
ENDTAB
  0
ENDSEC
  0
SECTION
  2
BLOCKS
  0
BLOCK
  5
23A
330
238
100
AcDbEntity
  8
0
100
AcDbBlockBegin
  2
_ArchTick
 70
0
 10
0.0
 20
0.0
 30
0.0
  3
_ArchTick
  1

  0
LWPOLYLINE
  5
239
330
238
100
AcDbEntity
  8
0
  6
ByBlock
 62
0
100
AcDbPolyline
 90
2
 70
0
 43
0.15
 10
-0.5
 20
-0.5
 10
0.5
 20
0.5
  0
ENDBLK
  5
23B
330
238
100
AcDbEntity
  8
0
100
AcDbBlockEnd
  0
BLOCK
  5
20
330
1F
100
AcDbEntity
  8
0
100
AcDbBlockBegin
  2
*Model_Space
 70
0
 10
0.0
 20
0.0
 30
0.0
  3
*Model_Space
  1

  0
ENDBLK
  5
21
330
1F
100
AcDbEntity
  8
0
100
AcDbBlockEnd
  0
BLOCK
  5
5A
330
58
100
AcDbEntity
 67
1
  8
0
100
AcDbBlockBegin
  2
*Paper_Space
 70
0
 10
0.0
 20
0.0
 30
0.0
  3
*Paper_Space
  1

  0
ENDBLK
  5
5B
330
58
100
AcDbEntity
 67
1
  8
0
100
AcDbBlockEnd
  0
BLOCK
  5
240
330
23C
100
AcDbEntity
  8
0
100
AcDbBlockBegin
  2
_Open30
 70
0
 10
0.0
 20
0.0
 30
0.0
  3
_Open30
  1

  0
LINE
  5
23D
330
23C
100
AcDbEntity
  8
0
  6
ByBlock
 62
0
370
-2
100
AcDbLine
 10
-1.0
 20
0.26794919
 30
0.0
 11
0.0
 21
0.0
 31
0.0
  0
LINE
  5
23E
330
23C
100
AcDbEntity
  8
0
  6
ByBlock
 62
0
370
-2
100
AcDbLine
 10
0.0
 20
0.0
 30
0.0
 11
-1.0
 21
-0.26794919
 31
0.0
  0
LINE
  5
23F
330
23C
100
AcDbEntity
  8
0
  6
ByBlock
 62
0
370
-2
100
AcDbLine
 10
0.0
 20
0.0
 30
0.0
 11
-1.0
 21
0.0
 31
0.0
  0
ENDBLK
  5
241
330
23C
100
AcDbEntity
  8
0
100
AcDbBlockEnd
  0
ENDSEC
  0
SECTION
  2
ENTITIES
  0
TEXT
  5
572
330
1F
100
AcDbEntity
  8
SCAN
 67
0
100
AcDbText
 10
-10.0
 20
2.0
 40
3.0
  1
1mm
 50
0.0
 51
0.0
  7
STANDARD
 41
1.0
 71
0
 72
0
 11
-10.0
 21
2.0
100
AcDbText
 73
0
  0
LINE
  5
573
330
1F
100
AcDbEntity
  8
0
 67
0
100
AcDbLine
 10
0.0
 20
0.0
 11
0.0
 21
6.0
  0
TEXT
  5
574
330
1F
100
AcDbEntity
  8
SCAN
 67
0
100
AcDbText
 10
0.5
 20
7.0
 40
1.5
  1
1
 50
90.0
 51
0.0
  7
STANDARD
 41
1.0
 71
0
 72
0
 11
0.5
 21
7.0
100
AcDbText
 73
0
  0
LINE
  5
575
330
1F
100
AcDbEntity
  8
0
 67
0
100
AcDbLine
 10
1.0
 20
0.0
 11
1.0
 21
2.0
  0
LINE
  5
576
330
1F
100
AcDbEntity
  8
0
 67
0
100
AcDbLine
 10
2.0
 20
0.0
 11
2.0
 21
2.0
  0
LINE
  5
577
330
1F
100
AcDbEntity
  8
0
 67
0
100
AcDbLine
 10
3.0
 20
0.0
 11
3.0
 21
2.0
  0
LINE
  5
578
330
1F
100
AcDbEntity
  8
0
 67
0
100
AcDbLine
 10
4.0
 20
0.0
 11
4.0
 21
3.0
  0
LINE
  5
579
330
1F
100
AcDbEntity
  8
0
 67
0
100
AcDbLine
 10
5.0
 20
0.0
 11
5.0
 21
2.0
  0
LINE
  5
57A
330
1F
100
AcDbEntity
  8
0
 67
0
100
AcDbLine
 10
6.0
 20
0.0
 11
6.0
 21
2.0
  0
LINE
  5
57B
330
1F
100
AcDbEntity
  8
0
 67
0
100
AcDbLine
 10
7.0
 20
0.0
 11
7.0
 21
2.0
  0
LINE
  5
57C
330
1F
100
AcDbEntity
  8
0
 67
0
100
AcDbLine
 10
8.0
 20
0.0
 11
8.0
 21
2.0
  0
LINE
  5
57D
330
1F
100
AcDbEntity
  8
0
 67
0
100
AcDbLine
 10
9.0
 20
0.0
 11
9.0
 21
6.0
  0
TEXT
  5
57E
330
1F
100
AcDbEntity
  8
SCAN
 67
0
100
AcDbText
 10
9.5
 20
7.0
 40
1.5
  1
10
 50
90.0
 51
0.0
  7
STANDARD
 41
1.0
 71
0
 72
0
 11
9.5
 21
7.0
100
AcDbText
 73
0
  0
LINE
  5
57F
330
1F
100
AcDbEntity
  8
0
 67
0
100
AcDbLine
 10
10.0
 20
0.0
 11
10.0
 21
2.0
  0
LINE
  5
580
330
1F
100
AcDbEntity
  8
0
 67
0
100
AcDbLine
 10
11.0
 20
0.0
 11
11.0
 21
2.0
  0
LINE
  5
581
330
1F
100
AcDbEntity
  8
0
 67
0
100
AcDbLine
 10
12.0
 20
0.0
 11
12.0
 21
2.0
  0
LINE
  5
582
330
1F
100
AcDbEntity
  8
0
 67
0
100
AcDbLine
 10
13.0
 20
0.0
 11
13.0
 21
2.0
  0
LINE
  5
583
330
1F
100
AcDbEntity
  8
0
 67
0
100
AcDbLine
 10
14.0
 20
0.0
 11
14.0
 21
3.0
  0
LINE
  5
584
330
1F
100
AcDbEntity
  8
0
 67
0
100
AcDbLine
 10
15.0
 20
0.0
 11
15.0
 21
2.0
  0
LINE
  5
585
330
1F
100
AcDbEntity
  8
0
 67
0
100
AcDbLine
 10
16.0
 20
0.0
 11
16.0
 21
2.0
  0
LINE
  5
586
330
1F
100
AcDbEntity
  8
0
 67
0
100
AcDbLine
 10
17.0
 20
0.0
 11
17.0
 21
2.0
  0
LINE
  5
587
330
1F
100
AcDbEntity
  8
0
 67
0
100
AcDbLine
 10
18.0
 20
0.0
 11
18.0
 21
2.0
  0
LINE
  5
588
330
1F
100
AcDbEntity
  8
0
 67
0
100
AcDbLine
 10
19.0
 20
0.0
 11
19.0
 21
6.0
  0
TEXT
  5
589
330
1F
100
AcDbEntity
  8
SCAN
 67
0
100
AcDbText
 10
19.5
 20
7.0
 40
1.5
  1
20
 50
90.0
 51
0.0
  7
STANDARD
 41
1.0
 71
0
 72
0
 11
19.5
 21
7.0
100
AcDbText
 73
0
  0
LINE
  5
58A
330
1F
100
AcDbEntity
  8
0
 67
0
100
AcDbLine
 10
20.0
 20
0.0
 11
20.0
 21
2.0
  0
LINE
  5
58B
330
1F
100
AcDbEntity
  8
0
 67
0
100
AcDbLine
 10
21.0
 20
0.0
 11
21.0
 21
2.0
  0
LINE
  5
58C
330
1F
100
AcDbEntity
  8
0
 67
0
100
AcDbLine
 10
22.0
 20
0.0
 11
22.0
 21
2.0
  0
LINE
  5
58D
330
1F
100
AcDbEntity
  8
0
 67
0
100
AcDbLine
 10
23.0
 20
0.0
 11
23.0
 21
2.0
  0
LINE
  5
58E
330
1F
100
AcDbEntity
  8
0
 67
0
100
AcDbLine
 10
24.0
 20
0.0
 11
24.0
 21
3.0
  0
LINE
  5
58F
330
1F
100
AcDbEntity
  8
0
 67
0
100
AcDbLine
 10
25.0
 20
0.0
 11
25.0
 21
2.0
  0
LINE
  5
590
330
1F
100
AcDbEntity
  8
0
 67
0
100
AcDbLine
 10
26.0
 20
0.0
 11
26.0
 21
2.0
  0
LINE
  5
591
330
1F
100
AcDbEntity
  8
0
 67
0
100
AcDbLine
 10
27.0
 20
0.0
 11
27.0
 21
2.0
  0
LINE
  5
592
330
1F
100
AcDbEntity
  8
0
 67
0
100
AcDbLine
 10
28.0
 20
0.0
 11
28.0
 21
2.0
  0
LINE
  5
593
330
1F
100
AcDbEntity
  8
0
 67
0
100
AcDbLine
 10
29.0
 20
0.0
 11
29.0
 21
6.0
  0
TEXT
  5
594
330
1F
100
AcDbEntity
  8
SCAN
 67
0
100
AcDbText
 10
29.5
 20
7.0
 40
1.5
  1
30
 50
90.0
 51
0.0
  7
STANDARD
 41
1.0
 71
0
 72
0
 11
29.5
 21
7.0
100
AcDbText
 73
0
  0
LINE
  5
595
330
1F
100
AcDbEntity
  8
0
 67
0
100
AcDbLine
 10
30.0
 20
0.0
 11
30.0
 21
2.0
  0
LINE
  5
596
330
1F
100
AcDbEntity
  8
0
 67
0
100
AcDbLine
 10
31.0
 20
0.0
 11
31.0
 21
2.0
  0
LINE
  5
597
330
1F
100
AcDbEntity
  8
0
 67
0
100
AcDbLine
 10
32.0
 20
0.0
 11
32.0
 21
2.0
  0
LINE
  5
598
330
1F
100
AcDbEntity
  8
0
 67
0
100
AcDbLine
 10
33.0
 20
0.0
 11
33.0
 21
2.0
  0
LINE
  5
599
330
1F
100
AcDbEntity
  8
0
 67
0
100
AcDbLine
 10
34.0
 20
0.0
 11
34.0
 21
3.0
  0
LINE
  5
59A
330
1F
100
AcDbEntity
  8
0
 67
0
100
AcDbLine
 10
35.0
 20
0.0
 11
35.0
 21
2.0
  0
LINE
  5
59B
330
1F
100
AcDbEntity
  8
0
 67
0
100
AcDbLine
 10
36.0
 20
0.0
 11
36.0
 21
2.0
  0
LINE
  5
59C
330
1F
100
AcDbEntity
  8
0
 67
0
100
AcDbLine
 10
37.0
 20
0.0
 11
37.0
 21
2.0
  0
LINE
  5
59D
330
1F
100
AcDbEntity
  8
0
 67
0
100
AcDbLine
 10
38.0
 20
0.0
 11
38.0
 21
2.0
  0
LINE
  5
59E
330
1F
100
AcDbEntity
  8
0
 67
0
100
AcDbLine
 10
39.0
 20
0.0
 11
39.0
 21
6.0
  0
TEXT
  5
59F
330
1F
100
AcDbEntity
  8
SCAN
 67
0
100
AcDbText
 10
39.5
 20
7.0
 40
1.5
  1
40
 50
90.0
 51
0.0
  7
STANDARD
 41
1.0
 71
0
 72
0
 11
39.5
 21
7.0
100
AcDbText
 73
0
  0
LINE
  5
5A0
330
1F
100
AcDbEntity
  8
0
 67
0
100
AcDbLine
 10
40.0
 20
0.0
 11
40.0
 21
2.0
  0
LINE
  5
5A1
330
1F
100
AcDbEntity
  8
0
 67
0
100
AcDbLine
 10
41.0
 20
0.0
 11
41.0
 21
2.0
  0
LINE
  5
5A2
330
1F
100
AcDbEntity
  8
0
 67
0
100
AcDbLine
 10
42.0
 20
0.0
 11
42.0
 21
2.0
  0
LINE
  5
5A3
330
1F
100
AcDbEntity
  8
0
 67
0
100
AcDbLine
 10
43.0
 20
0.0
 11
43.0
 21
2.0
  0
LINE
  5
5A4
330
1F
100
AcDbEntity
  8
0
 67
0
100
AcDbLine
 10
44.0
 20
0.0
 11
44.0
 21
3.0
  0
LINE
  5
5A5
330
1F
100
AcDbEntity
  8
0
 67
0
100
AcDbLine
 10
45.0
 20
0.0
 11
45.0
 21
2.0
  0
LINE
  5
5A6
330
1F
100
AcDbEntity
  8
0
 67
0
100
AcDbLine
 10
46.0
 20
0.0
 11
46.0
 21
2.0
  0
LINE
  5
5A7
330
1F
100
AcDbEntity
  8
0
 67
0
100
AcDbLine
 10
47.0
 20
0.0
 11
47.0
 21
2.0
  0
LINE
  5
5A8
330
1F
100
AcDbEntity
  8
0
 67
0
100
AcDbLine
 10
48.0
 20
0.0
 11
48.0
 21
2.0
  0
LINE
  5
5A9
330
1F
100
AcDbEntity
  8
0
 67
0
100
AcDbLine
 10
49.0
 20
0.0
 11
49.0
 21
6.0
  0
TEXT
  5
5AA
330
1F
100
AcDbEntity
  8
SCAN
 67
0
100
AcDbText
 10
49.5
 20
7.0
 40
1.5
  1
50
 50
90.0
 51
0.0
  7
STANDARD
 41
1.0
 71
0
 72
0
 11
49.5
 21
7.0
100
AcDbText
 73
0
  0
LINE
  5
5AB
330
1F
100
AcDbEntity
  8
0
 67
0
100
AcDbLine
 10
50.0
 20
0.0
 11
50.0
 21
2.0
  0
LINE
  5
5AC
330
1F
100
AcDbEntity
  8
0
 67
0
100
AcDbLine
 10
51.0
 20
0.0
 11
51.0
 21
2.0
  0
LINE
  5
5AD
330
1F
100
AcDbEntity
  8
0
 67
0
100
AcDbLine
 10
52.0
 20
0.0
 11
52.0
 21
2.0
  0
LINE
  5
5AE
330
1F
100
AcDbEntity
  8
0
 67
0
100
AcDbLine
 10
53.0
 20
0.0
 11
53.0
 21
2.0
  0
LINE
  5
5AF
330
1F
100
AcDbEntity
  8
0
 67
0
100
AcDbLine
 10
54.0
 20
0.0
 11
54.0
 21
3.0
  0
LINE
  5
5B0
330
1F
100
AcDbEntity
  8
0
 67
0
100
AcDbLine
 10
55.0
 20
0.0
 11
55.0
 21
2.0
  0
LINE
  5
5B1
330
1F
100
AcDbEntity
  8
0
 67
0
100
AcDbLine
 10
56.0
 20
0.0
 11
56.0
 21
2.0
  0
LINE
  5
5B2
330
1F
100
AcDbEntity
  8
0
 67
0
100
AcDbLine
 10
57.0
 20
0.0
 11
57.0
 21
2.0
  0
LINE
  5
5B3
330
1F
100
AcDbEntity
  8
0
 67
0
100
AcDbLine
 10
58.0
 20
0.0
 11
58.0
 21
2.0
  0
LINE
  5
5B4
330
1F
100
AcDbEntity
  8
0
 67
0
100
AcDbLine
 10
59.0
 20
0.0
 11
59.0
 21
6.0
  0
TEXT
  5
5B5
330
1F
100
AcDbEntity
  8
SCAN
 67
0
100
AcDbText
 10
59.5
 20
7.0
 40
1.5
  1
60
 50
90.0
 51
0.0
  7
STANDARD
 41
1.0
 71
0
 72
0
 11
59.5
 21
7.0
100
AcDbText
 73
0
  0
LINE
  5
5B6
330
1F
100
AcDbEntity
  8
0
 67
0
100
AcDbLine
 10
60.0
 20
0.0
 11
60.0
 21
2.0
  0
LINE
  5
5B7
330
1F
100
AcDbEntity
  8
0
 67
0
100
AcDbLine
 10
61.0
 20
0.0
 11
61.0
 21
2.0
  0
LINE
  5
5B8
330
1F
100
AcDbEntity
  8
0
 67
0
100
AcDbLine
 10
62.0
 20
0.0
 11
62.0
 21
2.0
  0
LINE
  5
5B9
330
1F
100
AcDbEntity
  8
0
 67
0
100
AcDbLine
 10
63.0
 20
0.0
 11
63.0
 21
2.0
  0
LINE
  5
5BA
330
1F
100
AcDbEntity
  8
0
 67
0
100
AcDbLine
 10
64.0
 20
0.0
 11
64.0
 21
3.0
  0
LINE
  5
5BB
330
1F
100
AcDbEntity
  8
0
 67
0
100
AcDbLine
 10
65.0
 20
0.0
 11
65.0
 21
2.0
  0
LINE
  5
5BC
330
1F
100
AcDbEntity
  8
0
 67
0
100
AcDbLine
 10
66.0
 20
0.0
 11
66.0
 21
2.0
  0
LINE
  5
5BD
330
1F
100
AcDbEntity
  8
0
 67
0
100
AcDbLine
 10
67.0
 20
0.0
 11
67.0
 21
2.0
  0
LINE
  5
5BE
330
1F
100
AcDbEntity
  8
0
 67
0
100
AcDbLine
 10
68.0
 20
0.0
 11
68.0
 21
2.0
  0
LINE
  5
5BF
330
1F
100
AcDbEntity
  8
0
 67
0
100
AcDbLine
 10
69.0
 20
0.0
 11
69.0
 21
6.0
  0
TEXT
  5
5C0
330
1F
100
AcDbEntity
  8
SCAN
 67
0
100
AcDbText
 10
69.5
 20
7.0
 40
1.5
  1
70
 50
90.0
 51
0.0
  7
STANDARD
 41
1.0
 71
0
 72
0
 11
69.5
 21
7.0
100
AcDbText
 73
0
  0
LINE
  5
5C1
330
1F
100
AcDbEntity
  8
0
 67
0
100
AcDbLine
 10
70.0
 20
0.0
 11
70.0
 21
2.0
  0
LINE
  5
5C2
330
1F
100
AcDbEntity
  8
0
 67
0
100
AcDbLine
 10
71.0
 20
0.0
 11
71.0
 21
2.0
  0
LINE
  5
5C3
330
1F
100
AcDbEntity
  8
0
 67
0
100
AcDbLine
 10
72.0
 20
0.0
 11
72.0
 21
2.0
  0
LINE
  5
5C4
330
1F
100
AcDbEntity
  8
0
 67
0
100
AcDbLine
 10
73.0
 20
0.0
 11
73.0
 21
2.0
  0
LINE
  5
5C5
330
1F
100
AcDbEntity
  8
0
 67
0
100
AcDbLine
 10
74.0
 20
0.0
 11
74.0
 21
3.0
  0
LINE
  5
5C6
330
1F
100
AcDbEntity
  8
0
 67
0
100
AcDbLine
 10
75.0
 20
0.0
 11
75.0
 21
2.0
  0
LINE
  5
5C7
330
1F
100
AcDbEntity
  8
0
 67
0
100
AcDbLine
 10
76.0
 20
0.0
 11
76.0
 21
2.0
  0
LINE
  5
5C8
330
1F
100
AcDbEntity
  8
0
 67
0
100
AcDbLine
 10
77.0
 20
0.0
 11
77.0
 21
2.0
  0
LINE
  5
5C9
330
1F
100
AcDbEntity
  8
0
 67
0
100
AcDbLine
 10
78.0
 20
0.0
 11
78.0
 21
2.0
  0
LINE
  5
5CA
330
1F
100
AcDbEntity
  8
0
 67
0
100
AcDbLine
 10
79.0
 20
0.0
 11
79.0
 21
6.0
  0
TEXT
  5
5CB
330
1F
100
AcDbEntity
  8
SCAN
 67
0
100
AcDbText
 10
79.5
 20
7.0
 40
1.5
  1
80
 50
90.0
 51
0.0
  7
STANDARD
 41
1.0
 71
0
 72
0
 11
79.5
 21
7.0
100
AcDbText
 73
0
  0
LINE
  5
5CC
330
1F
100
AcDbEntity
  8
0
 67
0
100
AcDbLine
 10
80.0
 20
0.0
 11
80.0
 21
2.0
  0
LINE
  5
5CD
330
1F
100
AcDbEntity
  8
0
 67
0
100
AcDbLine
 10
81.0
 20
0.0
 11
81.0
 21
2.0
  0
LINE
  5
5CE
330
1F
100
AcDbEntity
  8
0
 67
0
100
AcDbLine
 10
82.0
 20
0.0
 11
82.0
 21
2.0
  0
LINE
  5
5CF
330
1F
100
AcDbEntity
  8
0
 67
0
100
AcDbLine
 10
83.0
 20
0.0
 11
83.0
 21
2.0
  0
LINE
  5
5D0
330
1F
100
AcDbEntity
  8
0
 67
0
100
AcDbLine
 10
84.0
 20
0.0
 11
84.0
 21
3.0
  0
LINE
  5
5D1
330
1F
100
AcDbEntity
  8
0
 67
0
100
AcDbLine
 10
85.0
 20
0.0
 11
85.0
 21
2.0
  0
LINE
  5
5D2
330
1F
100
AcDbEntity
  8
0
 67
0
100
AcDbLine
 10
86.0
 20
0.0
 11
86.0
 21
2.0
  0
LINE
  5
5D3
330
1F
100
AcDbEntity
  8
0
 67
0
100
AcDbLine
 10
87.0
 20
0.0
 11
87.0
 21
2.0
  0
LINE
  5
5D4
330
1F
100
AcDbEntity
  8
0
 67
0
100
AcDbLine
 10
88.0
 20
0.0
 11
88.0
 21
2.0
  0
LINE
  5
5D5
330
1F
100
AcDbEntity
  8
0
 67
0
100
AcDbLine
 10
89.0
 20
0.0
 11
89.0
 21
6.0
  0
TEXT
  5
5D6
330
1F
100
AcDbEntity
  8
SCAN
 67
0
100
AcDbText
 10
89.5
 20
7.0
 40
1.5
  1
90
 50
90.0
 51
0.0
  7
STANDARD
 41
1.0
 71
0
 72
0
 11
89.5
 21
7.0
100
AcDbText
 73
0
  0
LINE
  5
5D7
330
1F
100
AcDbEntity
  8
0
 67
0
100
AcDbLine
 10
90.0
 20
0.0
 11
90.0
 21
2.0
  0
LINE
  5
5D8
330
1F
100
AcDbEntity
  8
0
 67
0
100
AcDbLine
 10
91.0
 20
0.0
 11
91.0
 21
2.0
  0
LINE
  5
5D9
330
1F
100
AcDbEntity
  8
0
 67
0
100
AcDbLine
 10
92.0
 20
0.0
 11
92.0
 21
2.0
  0
LINE
  5
5DA
330
1F
100
AcDbEntity
  8
0
 67
0
100
AcDbLine
 10
93.0
 20
0.0
 11
93.0
 21
2.0
  0
LINE
  5
5DB
330
1F
100
AcDbEntity
  8
0
 67
0
100
AcDbLine
 10
94.0
 20
0.0
 11
94.0
 21
3.0
  0
LINE
  5
5DC
330
1F
100
AcDbEntity
  8
0
 67
0
100
AcDbLine
 10
95.0
 20
0.0
 11
95.0
 21
2.0
  0
LINE
  5
5DD
330
1F
100
AcDbEntity
  8
0
 67
0
100
AcDbLine
 10
96.0
 20
0.0
 11
96.0
 21
2.0
  0
LINE
  5
5DE
330
1F
100
AcDbEntity
  8
0
 67
0
100
AcDbLine
 10
97.0
 20
0.0
 11
97.0
 21
2.0
  0
LINE
  5
5DF
330
1F
100
AcDbEntity
  8
0
 67
0
100
AcDbLine
 10
98.0
 20
0.0
 11
98.0
 21
2.0
  0
LINE
  5
5E0
330
1F
100
AcDbEntity
  8
0
 67
0
100
AcDbLine
 10
99.0
 20
0.0
 11
99.0
 21
6.0
  0
TEXT
  5
5E1
330
1F
100
AcDbEntity
  8
SCAN
 67
0
100
AcDbText
 10
99.5
 20
7.0
 40
1.5
  1
100
 50
90.0
 51
0.0
  7
STANDARD
 41
1.0
 71
0
 72
0
 11
99.5
 21
7.0
100
AcDbText
 73
0
  0
TEXT
  5
5E2
330
1F
100
AcDbEntity
  8
SCAN
 67
0
100
AcDbText
 10
-10.0
 20
12.0
 40
3.0
  1
1.5mm
 50
0.0
 51
0.0
  7
STANDARD
 41
1.0
 71
0
 72
0
 11
-10.0
 21
12.0
100
AcDbText
 73
0
  0
LINE
  5
5E3
330
1F
100
AcDbEntity
  8
0
 67
0
100
AcDbLine
 10
0.0
 20
10.0
 11
0.0
 21
16.0
  0
TEXT
  5
5E4
330
1F
100
AcDbEntity
  8
SCAN
 67
0
100
AcDbText
 10
0.5
 20
17.0
 40
1.5
  1
1
 50
90.0
 51
0.0
  7
STANDARD
 41
1.0
 71
0
 72
0
 11
0.5
 21
17.0
100
AcDbText
 73
0
  0
LINE
  5
5E5
330
1F
100
AcDbEntity
  8
0
 67
0
100
AcDbLine
 10
1.5
 20
10.0
 11
1.5
 21
12.0
  0
LINE
  5
5E6
330
1F
100
AcDbEntity
  8
0
 67
0
100
AcDbLine
 10
3.0
 20
10.0
 11
3.0
 21
12.0
  0
LINE
  5
5E7
330
1F
100
AcDbEntity
  8
0
 67
0
100
AcDbLine
 10
4.5
 20
10.0
 11
4.5
 21
12.0
  0
LINE
  5
5E8
330
1F
100
AcDbEntity
  8
0
 67
0
100
AcDbLine
 10
6.0
 20
10.0
 11
6.0
 21
13.0
  0
LINE
  5
5E9
330
1F
100
AcDbEntity
  8
0
 67
0
100
AcDbLine
 10
7.5
 20
10.0
 11
7.5
 21
12.0
  0
LINE
  5
5EA
330
1F
100
AcDbEntity
  8
0
 67
0
100
AcDbLine
 10
9.0
 20
10.0
 11
9.0
 21
12.0
  0
LINE
  5
5EB
330
1F
100
AcDbEntity
  8
0
 67
0
100
AcDbLine
 10
10.5
 20
10.0
 11
10.5
 21
12.0
  0
LINE
  5
5EC
330
1F
100
AcDbEntity
  8
0
 67
0
100
AcDbLine
 10
12.0
 20
10.0
 11
12.0
 21
12.0
  0
LINE
  5
5ED
330
1F
100
AcDbEntity
  8
0
 67
0
100
AcDbLine
 10
13.5
 20
10.0
 11
13.5
 21
16.0
  0
TEXT
  5
5EE
330
1F
100
AcDbEntity
  8
SCAN
 67
0
100
AcDbText
 10
14.0
 20
17.0
 40
1.5
  1
10
 50
90.0
 51
0.0
  7
STANDARD
 41
1.0
 71
0
 72
0
 11
14.0
 21
17.0
100
AcDbText
 73
0
  0
LINE
  5
5EF
330
1F
100
AcDbEntity
  8
0
 67
0
100
AcDbLine
 10
15.0
 20
10.0
 11
15.0
 21
12.0
  0
LINE
  5
5F0
330
1F
100
AcDbEntity
  8
0
 67
0
100
AcDbLine
 10
16.5
 20
10.0
 11
16.5
 21
12.0
  0
LINE
  5
5F1
330
1F
100
AcDbEntity
  8
0
 67
0
100
AcDbLine
 10
18.0
 20
10.0
 11
18.0
 21
12.0
  0
LINE
  5
5F2
330
1F
100
AcDbEntity
  8
0
 67
0
100
AcDbLine
 10
19.5
 20
10.0
 11
19.5
 21
12.0
  0
LINE
  5
5F3
330
1F
100
AcDbEntity
  8
0
 67
0
100
AcDbLine
 10
21.0
 20
10.0
 11
21.0
 21
13.0
  0
LINE
  5
5F4
330
1F
100
AcDbEntity
  8
0
 67
0
100
AcDbLine
 10
22.5
 20
10.0
 11
22.5
 21
12.0
  0
LINE
  5
5F5
330
1F
100
AcDbEntity
  8
0
 67
0
100
AcDbLine
 10
24.0
 20
10.0
 11
24.0
 21
12.0
  0
LINE
  5
5F6
330
1F
100
AcDbEntity
  8
0
 67
0
100
AcDbLine
 10
25.5
 20
10.0
 11
25.5
 21
12.0
  0
LINE
  5
5F7
330
1F
100
AcDbEntity
  8
0
 67
0
100
AcDbLine
 10
27.0
 20
10.0
 11
27.0
 21
12.0
  0
LINE
  5
5F8
330
1F
100
AcDbEntity
  8
0
 67
0
100
AcDbLine
 10
28.5
 20
10.0
 11
28.5
 21
16.0
  0
TEXT
  5
5F9
330
1F
100
AcDbEntity
  8
SCAN
 67
0
100
AcDbText
 10
29.0
 20
17.0
 40
1.5
  1
20
 50
90.0
 51
0.0
  7
STANDARD
 41
1.0
 71
0
 72
0
 11
29.0
 21
17.0
100
AcDbText
 73
0
  0
LINE
  5
5FA
330
1F
100
AcDbEntity
  8
0
 67
0
100
AcDbLine
 10
30.0
 20
10.0
 11
30.0
 21
12.0
  0
LINE
  5
5FB
330
1F
100
AcDbEntity
  8
0
 67
0
100
AcDbLine
 10
31.5
 20
10.0
 11
31.5
 21
12.0
  0
LINE
  5
5FC
330
1F
100
AcDbEntity
  8
0
 67
0
100
AcDbLine
 10
33.0
 20
10.0
 11
33.0
 21
12.0
  0
LINE
  5
5FD
330
1F
100
AcDbEntity
  8
0
 67
0
100
AcDbLine
 10
34.5
 20
10.0
 11
34.5
 21
12.0
  0
LINE
  5
5FE
330
1F
100
AcDbEntity
  8
0
 67
0
100
AcDbLine
 10
36.0
 20
10.0
 11
36.0
 21
13.0
  0
LINE
  5
5FF
330
1F
100
AcDbEntity
  8
0
 67
0
100
AcDbLine
 10
37.5
 20
10.0
 11
37.5
 21
12.0
  0
LINE
  5
600
330
1F
100
AcDbEntity
  8
0
 67
0
100
AcDbLine
 10
39.0
 20
10.0
 11
39.0
 21
12.0
  0
LINE
  5
601
330
1F
100
AcDbEntity
  8
0
 67
0
100
AcDbLine
 10
40.5
 20
10.0
 11
40.5
 21
12.0
  0
LINE
  5
602
330
1F
100
AcDbEntity
  8
0
 67
0
100
AcDbLine
 10
42.0
 20
10.0
 11
42.0
 21
12.0
  0
LINE
  5
603
330
1F
100
AcDbEntity
  8
0
 67
0
100
AcDbLine
 10
43.5
 20
10.0
 11
43.5
 21
16.0
  0
TEXT
  5
604
330
1F
100
AcDbEntity
  8
SCAN
 67
0
100
AcDbText
 10
44.0
 20
17.0
 40
1.5
  1
30
 50
90.0
 51
0.0
  7
STANDARD
 41
1.0
 71
0
 72
0
 11
44.0
 21
17.0
100
AcDbText
 73
0
  0
LINE
  5
605
330
1F
100
AcDbEntity
  8
0
 67
0
100
AcDbLine
 10
45.0
 20
10.0
 11
45.0
 21
12.0
  0
LINE
  5
606
330
1F
100
AcDbEntity
  8
0
 67
0
100
AcDbLine
 10
46.5
 20
10.0
 11
46.5
 21
12.0
  0
LINE
  5
607
330
1F
100
AcDbEntity
  8
0
 67
0
100
AcDbLine
 10
48.0
 20
10.0
 11
48.0
 21
12.0
  0
LINE
  5
608
330
1F
100
AcDbEntity
  8
0
 67
0
100
AcDbLine
 10
49.5
 20
10.0
 11
49.5
 21
12.0
  0
LINE
  5
609
330
1F
100
AcDbEntity
  8
0
 67
0
100
AcDbLine
 10
51.0
 20
10.0
 11
51.0
 21
13.0
  0
LINE
  5
60A
330
1F
100
AcDbEntity
  8
0
 67
0
100
AcDbLine
 10
52.5
 20
10.0
 11
52.5
 21
12.0
  0
LINE
  5
60B
330
1F
100
AcDbEntity
  8
0
 67
0
100
AcDbLine
 10
54.0
 20
10.0
 11
54.0
 21
12.0
  0
LINE
  5
60C
330
1F
100
AcDbEntity
  8
0
 67
0
100
AcDbLine
 10
55.5
 20
10.0
 11
55.5
 21
12.0
  0
LINE
  5
60D
330
1F
100
AcDbEntity
  8
0
 67
0
100
AcDbLine
 10
57.0
 20
10.0
 11
57.0
 21
12.0
  0
LINE
  5
60E
330
1F
100
AcDbEntity
  8
0
 67
0
100
AcDbLine
 10
58.5
 20
10.0
 11
58.5
 21
16.0
  0
TEXT
  5
60F
330
1F
100
AcDbEntity
  8
SCAN
 67
0
100
AcDbText
 10
59.0
 20
17.0
 40
1.5
  1
40
 50
90.0
 51
0.0
  7
STANDARD
 41
1.0
 71
0
 72
0
 11
59.0
 21
17.0
100
AcDbText
 73
0
  0
LINE
  5
610
330
1F
100
AcDbEntity
  8
0
 67
0
100
AcDbLine
 10
60.0
 20
10.0
 11
60.0
 21
12.0
  0
LINE
  5
611
330
1F
100
AcDbEntity
  8
0
 67
0
100
AcDbLine
 10
61.5
 20
10.0
 11
61.5
 21
12.0
  0
LINE
  5
612
330
1F
100
AcDbEntity
  8
0
 67
0
100
AcDbLine
 10
63.0
 20
10.0
 11
63.0
 21
12.0
  0
LINE
  5
613
330
1F
100
AcDbEntity
  8
0
 67
0
100
AcDbLine
 10
64.5
 20
10.0
 11
64.5
 21
12.0
  0
LINE
  5
614
330
1F
100
AcDbEntity
  8
0
 67
0
100
AcDbLine
 10
66.0
 20
10.0
 11
66.0
 21
13.0
  0
LINE
  5
615
330
1F
100
AcDbEntity
  8
0
 67
0
100
AcDbLine
 10
67.5
 20
10.0
 11
67.5
 21
12.0
  0
LINE
  5
616
330
1F
100
AcDbEntity
  8
0
 67
0
100
AcDbLine
 10
69.0
 20
10.0
 11
69.0
 21
12.0
  0
LINE
  5
617
330
1F
100
AcDbEntity
  8
0
 67
0
100
AcDbLine
 10
70.5
 20
10.0
 11
70.5
 21
12.0
  0
LINE
  5
618
330
1F
100
AcDbEntity
  8
0
 67
0
100
AcDbLine
 10
72.0
 20
10.0
 11
72.0
 21
12.0
  0
LINE
  5
619
330
1F
100
AcDbEntity
  8
0
 67
0
100
AcDbLine
 10
73.5
 20
10.0
 11
73.5
 21
16.0
  0
TEXT
  5
61A
330
1F
100
AcDbEntity
  8
SCAN
 67
0
100
AcDbText
 10
74.0
 20
17.0
 40
1.5
  1
50
 50
90.0
 51
0.0
  7
STANDARD
 41
1.0
 71
0
 72
0
 11
74.0
 21
17.0
100
AcDbText
 73
0
  0
LINE
  5
61B
330
1F
100
AcDbEntity
  8
0
 67
0
100
AcDbLine
 10
75.0
 20
10.0
 11
75.0
 21
12.0
  0
LINE
  5
61C
330
1F
100
AcDbEntity
  8
0
 67
0
100
AcDbLine
 10
76.5
 20
10.0
 11
76.5
 21
12.0
  0
LINE
  5
61D
330
1F
100
AcDbEntity
  8
0
 67
0
100
AcDbLine
 10
78.0
 20
10.0
 11
78.0
 21
12.0
  0
LINE
  5
61E
330
1F
100
AcDbEntity
  8
0
 67
0
100
AcDbLine
 10
79.5
 20
10.0
 11
79.5
 21
12.0
  0
LINE
  5
61F
330
1F
100
AcDbEntity
  8
0
 67
0
100
AcDbLine
 10
81.0
 20
10.0
 11
81.0
 21
13.0
  0
LINE
  5
620
330
1F
100
AcDbEntity
  8
0
 67
0
100
AcDbLine
 10
82.5
 20
10.0
 11
82.5
 21
12.0
  0
LINE
  5
621
330
1F
100
AcDbEntity
  8
0
 67
0
100
AcDbLine
 10
84.0
 20
10.0
 11
84.0
 21
12.0
  0
LINE
  5
622
330
1F
100
AcDbEntity
  8
0
 67
0
100
AcDbLine
 10
85.5
 20
10.0
 11
85.5
 21
12.0
  0
LINE
  5
623
330
1F
100
AcDbEntity
  8
0
 67
0
100
AcDbLine
 10
87.0
 20
10.0
 11
87.0
 21
12.0
  0
LINE
  5
624
330
1F
100
AcDbEntity
  8
0
 67
0
100
AcDbLine
 10
88.5
 20
10.0
 11
88.5
 21
16.0
  0
TEXT
  5
625
330
1F
100
AcDbEntity
  8
SCAN
 67
0
100
AcDbText
 10
89.0
 20
17.0
 40
1.5
  1
60
 50
90.0
 51
0.0
  7
STANDARD
 41
1.0
 71
0
 72
0
 11
89.0
 21
17.0
100
AcDbText
 73
0
  0
LINE
  5
626
330
1F
100
AcDbEntity
  8
0
 67
0
100
AcDbLine
 10
90.0
 20
10.0
 11
90.0
 21
12.0
  0
LINE
  5
627
330
1F
100
AcDbEntity
  8
0
 67
0
100
AcDbLine
 10
91.5
 20
10.0
 11
91.5
 21
12.0
  0
LINE
  5
628
330
1F
100
AcDbEntity
  8
0
 67
0
100
AcDbLine
 10
93.0
 20
10.0
 11
93.0
 21
12.0
  0
LINE
  5
629
330
1F
100
AcDbEntity
  8
0
 67
0
100
AcDbLine
 10
94.5
 20
10.0
 11
94.5
 21
12.0
  0
LINE
  5
62A
330
1F
100
AcDbEntity
  8
0
 67
0
100
AcDbLine
 10
96.0
 20
10.0
 11
96.0
 21
13.0
  0
LINE
  5
62B
330
1F
100
AcDbEntity
  8
0
 67
0
100
AcDbLine
 10
97.5
 20
10.0
 11
97.5
 21
12.0
  0
LINE
  5
62C
330
1F
100
AcDbEntity
  8
0
 67
0
100
AcDbLine
 10
99.0
 20
10.0
 11
99.0
 21
12.0
  0
LINE
  5
62D
330
1F
100
AcDbEntity
  8
0
 67
0
100
AcDbLine
 10
100.5
 20
10.0
 11
100.5
 21
12.0
  0
LINE
  5
62E
330
1F
100
AcDbEntity
  8
0
 67
0
100
AcDbLine
 10
102.0
 20
10.0
 11
102.0
 21
12.0
  0
LINE
  5
62F
330
1F
100
AcDbEntity
  8
0
 67
0
100
AcDbLine
 10
103.5
 20
10.0
 11
103.5
 21
16.0
  0
TEXT
  5
630
330
1F
100
AcDbEntity
  8
SCAN
 67
0
100
AcDbText
 10
104.0
 20
17.0
 40
1.5
  1
70
 50
90.0
 51
0.0
  7
STANDARD
 41
1.0
 71
0
 72
0
 11
104.0
 21
17.0
100
AcDbText
 73
0
  0
LINE
  5
631
330
1F
100
AcDbEntity
  8
0
 67
0
100
AcDbLine
 10
105.0
 20
10.0
 11
105.0
 21
12.0
  0
LINE
  5
632
330
1F
100
AcDbEntity
  8
0
 67
0
100
AcDbLine
 10
106.5
 20
10.0
 11
106.5
 21
12.0
  0
LINE
  5
633
330
1F
100
AcDbEntity
  8
0
 67
0
100
AcDbLine
 10
108.0
 20
10.0
 11
108.0
 21
12.0
  0
LINE
  5
634
330
1F
100
AcDbEntity
  8
0
 67
0
100
AcDbLine
 10
109.5
 20
10.0
 11
109.5
 21
12.0
  0
LINE
  5
635
330
1F
100
AcDbEntity
  8
0
 67
0
100
AcDbLine
 10
111.0
 20
10.0
 11
111.0
 21
13.0
  0
LINE
  5
636
330
1F
100
AcDbEntity
  8
0
 67
0
100
AcDbLine
 10
112.5
 20
10.0
 11
112.5
 21
12.0
  0
LINE
  5
637
330
1F
100
AcDbEntity
  8
0
 67
0
100
AcDbLine
 10
114.0
 20
10.0
 11
114.0
 21
12.0
  0
LINE
  5
638
330
1F
100
AcDbEntity
  8
0
 67
0
100
AcDbLine
 10
115.5
 20
10.0
 11
115.5
 21
12.0
  0
LINE
  5
639
330
1F
100
AcDbEntity
  8
0
 67
0
100
AcDbLine
 10
117.0
 20
10.0
 11
117.0
 21
12.0
  0
LINE
  5
63A
330
1F
100
AcDbEntity
  8
0
 67
0
100
AcDbLine
 10
118.5
 20
10.0
 11
118.5
 21
16.0
  0
TEXT
  5
63B
330
1F
100
AcDbEntity
  8
SCAN
 67
0
100
AcDbText
 10
119.0
 20
17.0
 40
1.5
  1
80
 50
90.0
 51
0.0
  7
STANDARD
 41
1.0
 71
0
 72
0
 11
119.0
 21
17.0
100
AcDbText
 73
0
  0
LINE
  5
63C
330
1F
100
AcDbEntity
  8
0
 67
0
100
AcDbLine
 10
120.0
 20
10.0
 11
120.0
 21
12.0
  0
LINE
  5
63D
330
1F
100
AcDbEntity
  8
0
 67
0
100
AcDbLine
 10
121.5
 20
10.0
 11
121.5
 21
12.0
  0
LINE
  5
63E
330
1F
100
AcDbEntity
  8
0
 67
0
100
AcDbLine
 10
123.0
 20
10.0
 11
123.0
 21
12.0
  0
LINE
  5
63F
330
1F
100
AcDbEntity
  8
0
 67
0
100
AcDbLine
 10
124.5
 20
10.0
 11
124.5
 21
12.0
  0
LINE
  5
640
330
1F
100
AcDbEntity
  8
0
 67
0
100
AcDbLine
 10
126.0
 20
10.0
 11
126.0
 21
13.0
  0
LINE
  5
641
330
1F
100
AcDbEntity
  8
0
 67
0
100
AcDbLine
 10
127.5
 20
10.0
 11
127.5
 21
12.0
  0
LINE
  5
642
330
1F
100
AcDbEntity
  8
0
 67
0
100
AcDbLine
 10
129.0
 20
10.0
 11
129.0
 21
12.0
  0
LINE
  5
643
330
1F
100
AcDbEntity
  8
0
 67
0
100
AcDbLine
 10
130.5
 20
10.0
 11
130.5
 21
12.0
  0
LINE
  5
644
330
1F
100
AcDbEntity
  8
0
 67
0
100
AcDbLine
 10
132.0
 20
10.0
 11
132.0
 21
12.0
  0
LINE
  5
645
330
1F
100
AcDbEntity
  8
0
 67
0
100
AcDbLine
 10
133.5
 20
10.0
 11
133.5
 21
16.0
  0
TEXT
  5
646
330
1F
100
AcDbEntity
  8
SCAN
 67
0
100
AcDbText
 10
134.0
 20
17.0
 40
1.5
  1
90
 50
90.0
 51
0.0
  7
STANDARD
 41
1.0
 71
0
 72
0
 11
134.0
 21
17.0
100
AcDbText
 73
0
  0
LINE
  5
647
330
1F
100
AcDbEntity
  8
0
 67
0
100
AcDbLine
 10
135.0
 20
10.0
 11
135.0
 21
12.0
  0
LINE
  5
648
330
1F
100
AcDbEntity
  8
0
 67
0
100
AcDbLine
 10
136.5
 20
10.0
 11
136.5
 21
12.0
  0
LINE
  5
649
330
1F
100
AcDbEntity
  8
0
 67
0
100
AcDbLine
 10
138.0
 20
10.0
 11
138.0
 21
12.0
  0
LINE
  5
64A
330
1F
100
AcDbEntity
  8
0
 67
0
100
AcDbLine
 10
139.5
 20
10.0
 11
139.5
 21
12.0
  0
LINE
  5
64B
330
1F
100
AcDbEntity
  8
0
 67
0
100
AcDbLine
 10
141.0
 20
10.0
 11
141.0
 21
13.0
  0
LINE
  5
64C
330
1F
100
AcDbEntity
  8
0
 67
0
100
AcDbLine
 10
142.5
 20
10.0
 11
142.5
 21
12.0
  0
LINE
  5
64D
330
1F
100
AcDbEntity
  8
0
 67
0
100
AcDbLine
 10
144.0
 20
10.0
 11
144.0
 21
12.0
  0
LINE
  5
64E
330
1F
100
AcDbEntity
  8
0
 67
0
100
AcDbLine
 10
145.5
 20
10.0
 11
145.5
 21
12.0
  0
LINE
  5
64F
330
1F
100
AcDbEntity
  8
0
 67
0
100
AcDbLine
 10
147.0
 20
10.0
 11
147.0
 21
12.0
  0
LINE
  5
650
330
1F
100
AcDbEntity
  8
0
 67
0
100
AcDbLine
 10
148.5
 20
10.0
 11
148.5
 21
16.0
  0
TEXT
  5
651
330
1F
100
AcDbEntity
  8
SCAN
 67
0
100
AcDbText
 10
149.0
 20
17.0
 40
1.5
  1
100
 50
90.0
 51
0.0
  7
STANDARD
 41
1.0
 71
0
 72
0
 11
149.0
 21
17.0
100
AcDbText
 73
0
  0
TEXT
  5
652
330
1F
100
AcDbEntity
  8
SCAN
 67
0
100
AcDbText
 10
-10.0
 20
22.0
 40
3.0
  1
2mm
 50
0.0
 51
0.0
  7
STANDARD
 41
1.0
 71
0
 72
0
 11
-10.0
 21
22.0
100
AcDbText
 73
0
  0
LINE
  5
653
330
1F
100
AcDbEntity
  8
0
 67
0
100
AcDbLine
 10
0.0
 20
20.0
 11
0.0
 21
26.0
  0
TEXT
  5
654
330
1F
100
AcDbEntity
  8
SCAN
 67
0
100
AcDbText
 10
0.5
 20
27.0
 40
1.5
  1
1
 50
90.0
 51
0.0
  7
STANDARD
 41
1.0
 71
0
 72
0
 11
0.5
 21
27.0
100
AcDbText
 73
0
  0
LINE
  5
655
330
1F
100
AcDbEntity
  8
0
 67
0
100
AcDbLine
 10
2.0
 20
20.0
 11
2.0
 21
22.0
  0
LINE
  5
656
330
1F
100
AcDbEntity
  8
0
 67
0
100
AcDbLine
 10
4.0
 20
20.0
 11
4.0
 21
22.0
  0
LINE
  5
657
330
1F
100
AcDbEntity
  8
0
 67
0
100
AcDbLine
 10
6.0
 20
20.0
 11
6.0
 21
22.0
  0
LINE
  5
658
330
1F
100
AcDbEntity
  8
0
 67
0
100
AcDbLine
 10
8.0
 20
20.0
 11
8.0
 21
23.0
  0
LINE
  5
659
330
1F
100
AcDbEntity
  8
0
 67
0
100
AcDbLine
 10
10.0
 20
20.0
 11
10.0
 21
22.0
  0
LINE
  5
65A
330
1F
100
AcDbEntity
  8
0
 67
0
100
AcDbLine
 10
12.0
 20
20.0
 11
12.0
 21
22.0
  0
LINE
  5
65B
330
1F
100
AcDbEntity
  8
0
 67
0
100
AcDbLine
 10
14.0
 20
20.0
 11
14.0
 21
22.0
  0
LINE
  5
65C
330
1F
100
AcDbEntity
  8
0
 67
0
100
AcDbLine
 10
16.0
 20
20.0
 11
16.0
 21
22.0
  0
LINE
  5
65D
330
1F
100
AcDbEntity
  8
0
 67
0
100
AcDbLine
 10
18.0
 20
20.0
 11
18.0
 21
26.0
  0
TEXT
  5
65E
330
1F
100
AcDbEntity
  8
SCAN
 67
0
100
AcDbText
 10
18.5
 20
27.0
 40
1.5
  1
10
 50
90.0
 51
0.0
  7
STANDARD
 41
1.0
 71
0
 72
0
 11
18.5
 21
27.0
100
AcDbText
 73
0
  0
LINE
  5
65F
330
1F
100
AcDbEntity
  8
0
 67
0
100
AcDbLine
 10
20.0
 20
20.0
 11
20.0
 21
22.0
  0
LINE
  5
660
330
1F
100
AcDbEntity
  8
0
 67
0
100
AcDbLine
 10
22.0
 20
20.0
 11
22.0
 21
22.0
  0
LINE
  5
661
330
1F
100
AcDbEntity
  8
0
 67
0
100
AcDbLine
 10
24.0
 20
20.0
 11
24.0
 21
22.0
  0
LINE
  5
662
330
1F
100
AcDbEntity
  8
0
 67
0
100
AcDbLine
 10
26.0
 20
20.0
 11
26.0
 21
22.0
  0
LINE
  5
663
330
1F
100
AcDbEntity
  8
0
 67
0
100
AcDbLine
 10
28.0
 20
20.0
 11
28.0
 21
23.0
  0
LINE
  5
664
330
1F
100
AcDbEntity
  8
0
 67
0
100
AcDbLine
 10
30.0
 20
20.0
 11
30.0
 21
22.0
  0
LINE
  5
665
330
1F
100
AcDbEntity
  8
0
 67
0
100
AcDbLine
 10
32.0
 20
20.0
 11
32.0
 21
22.0
  0
LINE
  5
666
330
1F
100
AcDbEntity
  8
0
 67
0
100
AcDbLine
 10
34.0
 20
20.0
 11
34.0
 21
22.0
  0
LINE
  5
667
330
1F
100
AcDbEntity
  8
0
 67
0
100
AcDbLine
 10
36.0
 20
20.0
 11
36.0
 21
22.0
  0
LINE
  5
668
330
1F
100
AcDbEntity
  8
0
 67
0
100
AcDbLine
 10
38.0
 20
20.0
 11
38.0
 21
26.0
  0
TEXT
  5
669
330
1F
100
AcDbEntity
  8
SCAN
 67
0
100
AcDbText
 10
38.5
 20
27.0
 40
1.5
  1
20
 50
90.0
 51
0.0
  7
STANDARD
 41
1.0
 71
0
 72
0
 11
38.5
 21
27.0
100
AcDbText
 73
0
  0
LINE
  5
66A
330
1F
100
AcDbEntity
  8
0
 67
0
100
AcDbLine
 10
40.0
 20
20.0
 11
40.0
 21
22.0
  0
LINE
  5
66B
330
1F
100
AcDbEntity
  8
0
 67
0
100
AcDbLine
 10
42.0
 20
20.0
 11
42.0
 21
22.0
  0
LINE
  5
66C
330
1F
100
AcDbEntity
  8
0
 67
0
100
AcDbLine
 10
44.0
 20
20.0
 11
44.0
 21
22.0
  0
LINE
  5
66D
330
1F
100
AcDbEntity
  8
0
 67
0
100
AcDbLine
 10
46.0
 20
20.0
 11
46.0
 21
22.0
  0
LINE
  5
66E
330
1F
100
AcDbEntity
  8
0
 67
0
100
AcDbLine
 10
48.0
 20
20.0
 11
48.0
 21
23.0
  0
LINE
  5
66F
330
1F
100
AcDbEntity
  8
0
 67
0
100
AcDbLine
 10
50.0
 20
20.0
 11
50.0
 21
22.0
  0
LINE
  5
670
330
1F
100
AcDbEntity
  8
0
 67
0
100
AcDbLine
 10
52.0
 20
20.0
 11
52.0
 21
22.0
  0
LINE
  5
671
330
1F
100
AcDbEntity
  8
0
 67
0
100
AcDbLine
 10
54.0
 20
20.0
 11
54.0
 21
22.0
  0
LINE
  5
672
330
1F
100
AcDbEntity
  8
0
 67
0
100
AcDbLine
 10
56.0
 20
20.0
 11
56.0
 21
22.0
  0
LINE
  5
673
330
1F
100
AcDbEntity
  8
0
 67
0
100
AcDbLine
 10
58.0
 20
20.0
 11
58.0
 21
26.0
  0
TEXT
  5
674
330
1F
100
AcDbEntity
  8
SCAN
 67
0
100
AcDbText
 10
58.5
 20
27.0
 40
1.5
  1
30
 50
90.0
 51
0.0
  7
STANDARD
 41
1.0
 71
0
 72
0
 11
58.5
 21
27.0
100
AcDbText
 73
0
  0
LINE
  5
675
330
1F
100
AcDbEntity
  8
0
 67
0
100
AcDbLine
 10
60.0
 20
20.0
 11
60.0
 21
22.0
  0
LINE
  5
676
330
1F
100
AcDbEntity
  8
0
 67
0
100
AcDbLine
 10
62.0
 20
20.0
 11
62.0
 21
22.0
  0
LINE
  5
677
330
1F
100
AcDbEntity
  8
0
 67
0
100
AcDbLine
 10
64.0
 20
20.0
 11
64.0
 21
22.0
  0
LINE
  5
678
330
1F
100
AcDbEntity
  8
0
 67
0
100
AcDbLine
 10
66.0
 20
20.0
 11
66.0
 21
22.0
  0
LINE
  5
679
330
1F
100
AcDbEntity
  8
0
 67
0
100
AcDbLine
 10
68.0
 20
20.0
 11
68.0
 21
23.0
  0
LINE
  5
67A
330
1F
100
AcDbEntity
  8
0
 67
0
100
AcDbLine
 10
70.0
 20
20.0
 11
70.0
 21
22.0
  0
LINE
  5
67B
330
1F
100
AcDbEntity
  8
0
 67
0
100
AcDbLine
 10
72.0
 20
20.0
 11
72.0
 21
22.0
  0
LINE
  5
67C
330
1F
100
AcDbEntity
  8
0
 67
0
100
AcDbLine
 10
74.0
 20
20.0
 11
74.0
 21
22.0
  0
LINE
  5
67D
330
1F
100
AcDbEntity
  8
0
 67
0
100
AcDbLine
 10
76.0
 20
20.0
 11
76.0
 21
22.0
  0
LINE
  5
67E
330
1F
100
AcDbEntity
  8
0
 67
0
100
AcDbLine
 10
78.0
 20
20.0
 11
78.0
 21
26.0
  0
TEXT
  5
67F
330
1F
100
AcDbEntity
  8
SCAN
 67
0
100
AcDbText
 10
78.5
 20
27.0
 40
1.5
  1
40
 50
90.0
 51
0.0
  7
STANDARD
 41
1.0
 71
0
 72
0
 11
78.5
 21
27.0
100
AcDbText
 73
0
  0
LINE
  5
680
330
1F
100
AcDbEntity
  8
0
 67
0
100
AcDbLine
 10
80.0
 20
20.0
 11
80.0
 21
22.0
  0
LINE
  5
681
330
1F
100
AcDbEntity
  8
0
 67
0
100
AcDbLine
 10
82.0
 20
20.0
 11
82.0
 21
22.0
  0
LINE
  5
682
330
1F
100
AcDbEntity
  8
0
 67
0
100
AcDbLine
 10
84.0
 20
20.0
 11
84.0
 21
22.0
  0
LINE
  5
683
330
1F
100
AcDbEntity
  8
0
 67
0
100
AcDbLine
 10
86.0
 20
20.0
 11
86.0
 21
22.0
  0
LINE
  5
684
330
1F
100
AcDbEntity
  8
0
 67
0
100
AcDbLine
 10
88.0
 20
20.0
 11
88.0
 21
23.0
  0
LINE
  5
685
330
1F
100
AcDbEntity
  8
0
 67
0
100
AcDbLine
 10
90.0
 20
20.0
 11
90.0
 21
22.0
  0
LINE
  5
686
330
1F
100
AcDbEntity
  8
0
 67
0
100
AcDbLine
 10
92.0
 20
20.0
 11
92.0
 21
22.0
  0
LINE
  5
687
330
1F
100
AcDbEntity
  8
0
 67
0
100
AcDbLine
 10
94.0
 20
20.0
 11
94.0
 21
22.0
  0
LINE
  5
688
330
1F
100
AcDbEntity
  8
0
 67
0
100
AcDbLine
 10
96.0
 20
20.0
 11
96.0
 21
22.0
  0
LINE
  5
689
330
1F
100
AcDbEntity
  8
0
 67
0
100
AcDbLine
 10
98.0
 20
20.0
 11
98.0
 21
26.0
  0
TEXT
  5
68A
330
1F
100
AcDbEntity
  8
SCAN
 67
0
100
AcDbText
 10
98.5
 20
27.0
 40
1.5
  1
50
 50
90.0
 51
0.0
  7
STANDARD
 41
1.0
 71
0
 72
0
 11
98.5
 21
27.0
100
AcDbText
 73
0
  0
LINE
  5
68B
330
1F
100
AcDbEntity
  8
0
 67
0
100
AcDbLine
 10
100.0
 20
20.0
 11
100.0
 21
22.0
  0
LINE
  5
68C
330
1F
100
AcDbEntity
  8
0
 67
0
100
AcDbLine
 10
102.0
 20
20.0
 11
102.0
 21
22.0
  0
LINE
  5
68D
330
1F
100
AcDbEntity
  8
0
 67
0
100
AcDbLine
 10
104.0
 20
20.0
 11
104.0
 21
22.0
  0
LINE
  5
68E
330
1F
100
AcDbEntity
  8
0
 67
0
100
AcDbLine
 10
106.0
 20
20.0
 11
106.0
 21
22.0
  0
LINE
  5
68F
330
1F
100
AcDbEntity
  8
0
 67
0
100
AcDbLine
 10
108.0
 20
20.0
 11
108.0
 21
23.0
  0
LINE
  5
690
330
1F
100
AcDbEntity
  8
0
 67
0
100
AcDbLine
 10
110.0
 20
20.0
 11
110.0
 21
22.0
  0
LINE
  5
691
330
1F
100
AcDbEntity
  8
0
 67
0
100
AcDbLine
 10
112.0
 20
20.0
 11
112.0
 21
22.0
  0
LINE
  5
692
330
1F
100
AcDbEntity
  8
0
 67
0
100
AcDbLine
 10
114.0
 20
20.0
 11
114.0
 21
22.0
  0
LINE
  5
693
330
1F
100
AcDbEntity
  8
0
 67
0
100
AcDbLine
 10
116.0
 20
20.0
 11
116.0
 21
22.0
  0
LINE
  5
694
330
1F
100
AcDbEntity
  8
0
 67
0
100
AcDbLine
 10
118.0
 20
20.0
 11
118.0
 21
26.0
  0
TEXT
  5
695
330
1F
100
AcDbEntity
  8
SCAN
 67
0
100
AcDbText
 10
118.5
 20
27.0
 40
1.5
  1
60
 50
90.0
 51
0.0
  7
STANDARD
 41
1.0
 71
0
 72
0
 11
118.5
 21
27.0
100
AcDbText
 73
0
  0
LINE
  5
696
330
1F
100
AcDbEntity
  8
0
 67
0
100
AcDbLine
 10
120.0
 20
20.0
 11
120.0
 21
22.0
  0
LINE
  5
697
330
1F
100
AcDbEntity
  8
0
 67
0
100
AcDbLine
 10
122.0
 20
20.0
 11
122.0
 21
22.0
  0
LINE
  5
698
330
1F
100
AcDbEntity
  8
0
 67
0
100
AcDbLine
 10
124.0
 20
20.0
 11
124.0
 21
22.0
  0
LINE
  5
699
330
1F
100
AcDbEntity
  8
0
 67
0
100
AcDbLine
 10
126.0
 20
20.0
 11
126.0
 21
22.0
  0
LINE
  5
69A
330
1F
100
AcDbEntity
  8
0
 67
0
100
AcDbLine
 10
128.0
 20
20.0
 11
128.0
 21
23.0
  0
LINE
  5
69B
330
1F
100
AcDbEntity
  8
0
 67
0
100
AcDbLine
 10
130.0
 20
20.0
 11
130.0
 21
22.0
  0
LINE
  5
69C
330
1F
100
AcDbEntity
  8
0
 67
0
100
AcDbLine
 10
132.0
 20
20.0
 11
132.0
 21
22.0
  0
LINE
  5
69D
330
1F
100
AcDbEntity
  8
0
 67
0
100
AcDbLine
 10
134.0
 20
20.0
 11
134.0
 21
22.0
  0
LINE
  5
69E
330
1F
100
AcDbEntity
  8
0
 67
0
100
AcDbLine
 10
136.0
 20
20.0
 11
136.0
 21
22.0
  0
LINE
  5
69F
330
1F
100
AcDbEntity
  8
0
 67
0
100
AcDbLine
 10
138.0
 20
20.0
 11
138.0
 21
26.0
  0
TEXT
  5
6A0
330
1F
100
AcDbEntity
  8
SCAN
 67
0
100
AcDbText
 10
138.5
 20
27.0
 40
1.5
  1
70
 50
90.0
 51
0.0
  7
STANDARD
 41
1.0
 71
0
 72
0
 11
138.5
 21
27.0
100
AcDbText
 73
0
  0
LINE
  5
6A1
330
1F
100
AcDbEntity
  8
0
 67
0
100
AcDbLine
 10
140.0
 20
20.0
 11
140.0
 21
22.0
  0
LINE
  5
6A2
330
1F
100
AcDbEntity
  8
0
 67
0
100
AcDbLine
 10
142.0
 20
20.0
 11
142.0
 21
22.0
  0
LINE
  5
6A3
330
1F
100
AcDbEntity
  8
0
 67
0
100
AcDbLine
 10
144.0
 20
20.0
 11
144.0
 21
22.0
  0
LINE
  5
6A4
330
1F
100
AcDbEntity
  8
0
 67
0
100
AcDbLine
 10
146.0
 20
20.0
 11
146.0
 21
22.0
  0
LINE
  5
6A5
330
1F
100
AcDbEntity
  8
0
 67
0
100
AcDbLine
 10
148.0
 20
20.0
 11
148.0
 21
23.0
  0
LINE
  5
6A6
330
1F
100
AcDbEntity
  8
0
 67
0
100
AcDbLine
 10
150.0
 20
20.0
 11
150.0
 21
22.0
  0
LINE
  5
6A7
330
1F
100
AcDbEntity
  8
0
 67
0
100
AcDbLine
 10
152.0
 20
20.0
 11
152.0
 21
22.0
  0
LINE
  5
6A8
330
1F
100
AcDbEntity
  8
0
 67
0
100
AcDbLine
 10
154.0
 20
20.0
 11
154.0
 21
22.0
  0
LINE
  5
6A9
330
1F
100
AcDbEntity
  8
0
 67
0
100
AcDbLine
 10
156.0
 20
20.0
 11
156.0
 21
22.0
  0
LINE
  5
6AA
330
1F
100
AcDbEntity
  8
0
 67
0
100
AcDbLine
 10
158.0
 20
20.0
 11
158.0
 21
26.0
  0
TEXT
  5
6AB
330
1F
100
AcDbEntity
  8
SCAN
 67
0
100
AcDbText
 10
158.5
 20
27.0
 40
1.5
  1
80
 50
90.0
 51
0.0
  7
STANDARD
 41
1.0
 71
0
 72
0
 11
158.5
 21
27.0
100
AcDbText
 73
0
  0
LINE
  5
6AC
330
1F
100
AcDbEntity
  8
0
 67
0
100
AcDbLine
 10
160.0
 20
20.0
 11
160.0
 21
22.0
  0
LINE
  5
6AD
330
1F
100
AcDbEntity
  8
0
 67
0
100
AcDbLine
 10
162.0
 20
20.0
 11
162.0
 21
22.0
  0
LINE
  5
6AE
330
1F
100
AcDbEntity
  8
0
 67
0
100
AcDbLine
 10
164.0
 20
20.0
 11
164.0
 21
22.0
  0
LINE
  5
6AF
330
1F
100
AcDbEntity
  8
0
 67
0
100
AcDbLine
 10
166.0
 20
20.0
 11
166.0
 21
22.0
  0
LINE
  5
6B0
330
1F
100
AcDbEntity
  8
0
 67
0
100
AcDbLine
 10
168.0
 20
20.0
 11
168.0
 21
23.0
  0
LINE
  5
6B1
330
1F
100
AcDbEntity
  8
0
 67
0
100
AcDbLine
 10
170.0
 20
20.0
 11
170.0
 21
22.0
  0
LINE
  5
6B2
330
1F
100
AcDbEntity
  8
0
 67
0
100
AcDbLine
 10
172.0
 20
20.0
 11
172.0
 21
22.0
  0
LINE
  5
6B3
330
1F
100
AcDbEntity
  8
0
 67
0
100
AcDbLine
 10
174.0
 20
20.0
 11
174.0
 21
22.0
  0
LINE
  5
6B4
330
1F
100
AcDbEntity
  8
0
 67
0
100
AcDbLine
 10
176.0
 20
20.0
 11
176.0
 21
22.0
  0
LINE
  5
6B5
330
1F
100
AcDbEntity
  8
0
 67
0
100
AcDbLine
 10
178.0
 20
20.0
 11
178.0
 21
26.0
  0
TEXT
  5
6B6
330
1F
100
AcDbEntity
  8
SCAN
 67
0
100
AcDbText
 10
178.5
 20
27.0
 40
1.5
  1
90
 50
90.0
 51
0.0
  7
STANDARD
 41
1.0
 71
0
 72
0
 11
178.5
 21
27.0
100
AcDbText
 73
0
  0
LINE
  5
6B7
330
1F
100
AcDbEntity
  8
0
 67
0
100
AcDbLine
 10
180.0
 20
20.0
 11
180.0
 21
22.0
  0
LINE
  5
6B8
330
1F
100
AcDbEntity
  8
0
 67
0
100
AcDbLine
 10
182.0
 20
20.0
 11
182.0
 21
22.0
  0
LINE
  5
6B9
330
1F
100
AcDbEntity
  8
0
 67
0
100
AcDbLine
 10
184.0
 20
20.0
 11
184.0
 21
22.0
  0
LINE
  5
6BA
330
1F
100
AcDbEntity
  8
0
 67
0
100
AcDbLine
 10
186.0
 20
20.0
 11
186.0
 21
22.0
  0
LINE
  5
6BB
330
1F
100
AcDbEntity
  8
0
 67
0
100
AcDbLine
 10
188.0
 20
20.0
 11
188.0
 21
23.0
  0
LINE
  5
6BC
330
1F
100
AcDbEntity
  8
0
 67
0
100
AcDbLine
 10
190.0
 20
20.0
 11
190.0
 21
22.0
  0
LINE
  5
6BD
330
1F
100
AcDbEntity
  8
0
 67
0
100
AcDbLine
 10
192.0
 20
20.0
 11
192.0
 21
22.0
  0
LINE
  5
6BE
330
1F
100
AcDbEntity
  8
0
 67
0
100
AcDbLine
 10
194.0
 20
20.0
 11
194.0
 21
22.0
  0
LINE
  5
6BF
330
1F
100
AcDbEntity
  8
0
 67
0
100
AcDbLine
 10
196.0
 20
20.0
 11
196.0
 21
22.0
  0
LINE
  5
6C0
330
1F
100
AcDbEntity
  8
0
 67
0
100
AcDbLine
 10
198.0
 20
20.0
 11
198.0
 21
26.0
  0
TEXT
  5
6C1
330
1F
100
AcDbEntity
  8
SCAN
 67
0
100
AcDbText
 10
198.5
 20
27.0
 40
1.5
  1
100
 50
90.0
 51
0.0
  7
STANDARD
 41
1.0
 71
0
 72
0
 11
198.5
 21
27.0
100
AcDbText
 73
0
  0
TEXT
  5
6C2
330
1F
100
AcDbEntity
  8
SCAN
 67
0
100
AcDbText
 10
-10.0
 20
32.0
 40
3.0
  1
3mm
 50
0.0
 51
0.0
  7
STANDARD
 41
1.0
 71
0
 72
0
 11
-10.0
 21
32.0
100
AcDbText
 73
0
  0
LINE
  5
6C3
330
1F
100
AcDbEntity
  8
0
 67
0
100
AcDbLine
 10
0.0
 20
30.0
 11
0.0
 21
36.0
  0
TEXT
  5
6C4
330
1F
100
AcDbEntity
  8
SCAN
 67
0
100
AcDbText
 10
0.5
 20
37.0
 40
1.5
  1
1
 50
90.0
 51
0.0
  7
STANDARD
 41
1.0
 71
0
 72
0
 11
0.5
 21
37.0
100
AcDbText
 73
0
  0
LINE
  5
6C5
330
1F
100
AcDbEntity
  8
0
 67
0
100
AcDbLine
 10
3.0
 20
30.0
 11
3.0
 21
32.0
  0
LINE
  5
6C6
330
1F
100
AcDbEntity
  8
0
 67
0
100
AcDbLine
 10
6.0
 20
30.0
 11
6.0
 21
32.0
  0
LINE
  5
6C7
330
1F
100
AcDbEntity
  8
0
 67
0
100
AcDbLine
 10
9.0
 20
30.0
 11
9.0
 21
32.0
  0
LINE
  5
6C8
330
1F
100
AcDbEntity
  8
0
 67
0
100
AcDbLine
 10
12.0
 20
30.0
 11
12.0
 21
33.0
  0
LINE
  5
6C9
330
1F
100
AcDbEntity
  8
0
 67
0
100
AcDbLine
 10
15.0
 20
30.0
 11
15.0
 21
32.0
  0
LINE
  5
6CA
330
1F
100
AcDbEntity
  8
0
 67
0
100
AcDbLine
 10
18.0
 20
30.0
 11
18.0
 21
32.0
  0
LINE
  5
6CB
330
1F
100
AcDbEntity
  8
0
 67
0
100
AcDbLine
 10
21.0
 20
30.0
 11
21.0
 21
32.0
  0
LINE
  5
6CC
330
1F
100
AcDbEntity
  8
0
 67
0
100
AcDbLine
 10
24.0
 20
30.0
 11
24.0
 21
32.0
  0
LINE
  5
6CD
330
1F
100
AcDbEntity
  8
0
 67
0
100
AcDbLine
 10
27.0
 20
30.0
 11
27.0
 21
36.0
  0
TEXT
  5
6CE
330
1F
100
AcDbEntity
  8
SCAN
 67
0
100
AcDbText
 10
27.5
 20
37.0
 40
1.5
  1
10
 50
90.0
 51
0.0
  7
STANDARD
 41
1.0
 71
0
 72
0
 11
27.5
 21
37.0
100
AcDbText
 73
0
  0
LINE
  5
6CF
330
1F
100
AcDbEntity
  8
0
 67
0
100
AcDbLine
 10
30.0
 20
30.0
 11
30.0
 21
32.0
  0
LINE
  5
6D0
330
1F
100
AcDbEntity
  8
0
 67
0
100
AcDbLine
 10
33.0
 20
30.0
 11
33.0
 21
32.0
  0
LINE
  5
6D1
330
1F
100
AcDbEntity
  8
0
 67
0
100
AcDbLine
 10
36.0
 20
30.0
 11
36.0
 21
32.0
  0
LINE
  5
6D2
330
1F
100
AcDbEntity
  8
0
 67
0
100
AcDbLine
 10
39.0
 20
30.0
 11
39.0
 21
32.0
  0
LINE
  5
6D3
330
1F
100
AcDbEntity
  8
0
 67
0
100
AcDbLine
 10
42.0
 20
30.0
 11
42.0
 21
33.0
  0
LINE
  5
6D4
330
1F
100
AcDbEntity
  8
0
 67
0
100
AcDbLine
 10
45.0
 20
30.0
 11
45.0
 21
32.0
  0
LINE
  5
6D5
330
1F
100
AcDbEntity
  8
0
 67
0
100
AcDbLine
 10
48.0
 20
30.0
 11
48.0
 21
32.0
  0
LINE
  5
6D6
330
1F
100
AcDbEntity
  8
0
 67
0
100
AcDbLine
 10
51.0
 20
30.0
 11
51.0
 21
32.0
  0
LINE
  5
6D7
330
1F
100
AcDbEntity
  8
0
 67
0
100
AcDbLine
 10
54.0
 20
30.0
 11
54.0
 21
32.0
  0
LINE
  5
6D8
330
1F
100
AcDbEntity
  8
0
 67
0
100
AcDbLine
 10
57.0
 20
30.0
 11
57.0
 21
36.0
  0
TEXT
  5
6D9
330
1F
100
AcDbEntity
  8
SCAN
 67
0
100
AcDbText
 10
57.5
 20
37.0
 40
1.5
  1
20
 50
90.0
 51
0.0
  7
STANDARD
 41
1.0
 71
0
 72
0
 11
57.5
 21
37.0
100
AcDbText
 73
0
  0
LINE
  5
6DA
330
1F
100
AcDbEntity
  8
0
 67
0
100
AcDbLine
 10
60.0
 20
30.0
 11
60.0
 21
32.0
  0
LINE
  5
6DB
330
1F
100
AcDbEntity
  8
0
 67
0
100
AcDbLine
 10
63.0
 20
30.0
 11
63.0
 21
32.0
  0
LINE
  5
6DC
330
1F
100
AcDbEntity
  8
0
 67
0
100
AcDbLine
 10
66.0
 20
30.0
 11
66.0
 21
32.0
  0
LINE
  5
6DD
330
1F
100
AcDbEntity
  8
0
 67
0
100
AcDbLine
 10
69.0
 20
30.0
 11
69.0
 21
32.0
  0
LINE
  5
6DE
330
1F
100
AcDbEntity
  8
0
 67
0
100
AcDbLine
 10
72.0
 20
30.0
 11
72.0
 21
33.0
  0
LINE
  5
6DF
330
1F
100
AcDbEntity
  8
0
 67
0
100
AcDbLine
 10
75.0
 20
30.0
 11
75.0
 21
32.0
  0
LINE
  5
6E0
330
1F
100
AcDbEntity
  8
0
 67
0
100
AcDbLine
 10
78.0
 20
30.0
 11
78.0
 21
32.0
  0
LINE
  5
6E1
330
1F
100
AcDbEntity
  8
0
 67
0
100
AcDbLine
 10
81.0
 20
30.0
 11
81.0
 21
32.0
  0
LINE
  5
6E2
330
1F
100
AcDbEntity
  8
0
 67
0
100
AcDbLine
 10
84.0
 20
30.0
 11
84.0
 21
32.0
  0
LINE
  5
6E3
330
1F
100
AcDbEntity
  8
0
 67
0
100
AcDbLine
 10
87.0
 20
30.0
 11
87.0
 21
36.0
  0
TEXT
  5
6E4
330
1F
100
AcDbEntity
  8
SCAN
 67
0
100
AcDbText
 10
87.5
 20
37.0
 40
1.5
  1
30
 50
90.0
 51
0.0
  7
STANDARD
 41
1.0
 71
0
 72
0
 11
87.5
 21
37.0
100
AcDbText
 73
0
  0
LINE
  5
6E5
330
1F
100
AcDbEntity
  8
0
 67
0
100
AcDbLine
 10
90.0
 20
30.0
 11
90.0
 21
32.0
  0
LINE
  5
6E6
330
1F
100
AcDbEntity
  8
0
 67
0
100
AcDbLine
 10
93.0
 20
30.0
 11
93.0
 21
32.0
  0
LINE
  5
6E7
330
1F
100
AcDbEntity
  8
0
 67
0
100
AcDbLine
 10
96.0
 20
30.0
 11
96.0
 21
32.0
  0
LINE
  5
6E8
330
1F
100
AcDbEntity
  8
0
 67
0
100
AcDbLine
 10
99.0
 20
30.0
 11
99.0
 21
32.0
  0
LINE
  5
6E9
330
1F
100
AcDbEntity
  8
0
 67
0
100
AcDbLine
 10
102.0
 20
30.0
 11
102.0
 21
33.0
  0
LINE
  5
6EA
330
1F
100
AcDbEntity
  8
0
 67
0
100
AcDbLine
 10
105.0
 20
30.0
 11
105.0
 21
32.0
  0
LINE
  5
6EB
330
1F
100
AcDbEntity
  8
0
 67
0
100
AcDbLine
 10
108.0
 20
30.0
 11
108.0
 21
32.0
  0
LINE
  5
6EC
330
1F
100
AcDbEntity
  8
0
 67
0
100
AcDbLine
 10
111.0
 20
30.0
 11
111.0
 21
32.0
  0
LINE
  5
6ED
330
1F
100
AcDbEntity
  8
0
 67
0
100
AcDbLine
 10
114.0
 20
30.0
 11
114.0
 21
32.0
  0
LINE
  5
6EE
330
1F
100
AcDbEntity
  8
0
 67
0
100
AcDbLine
 10
117.0
 20
30.0
 11
117.0
 21
36.0
  0
TEXT
  5
6EF
330
1F
100
AcDbEntity
  8
SCAN
 67
0
100
AcDbText
 10
117.5
 20
37.0
 40
1.5
  1
40
 50
90.0
 51
0.0
  7
STANDARD
 41
1.0
 71
0
 72
0
 11
117.5
 21
37.0
100
AcDbText
 73
0
  0
LINE
  5
6F0
330
1F
100
AcDbEntity
  8
0
 67
0
100
AcDbLine
 10
120.0
 20
30.0
 11
120.0
 21
32.0
  0
LINE
  5
6F1
330
1F
100
AcDbEntity
  8
0
 67
0
100
AcDbLine
 10
123.0
 20
30.0
 11
123.0
 21
32.0
  0
LINE
  5
6F2
330
1F
100
AcDbEntity
  8
0
 67
0
100
AcDbLine
 10
126.0
 20
30.0
 11
126.0
 21
32.0
  0
LINE
  5
6F3
330
1F
100
AcDbEntity
  8
0
 67
0
100
AcDbLine
 10
129.0
 20
30.0
 11
129.0
 21
32.0
  0
LINE
  5
6F4
330
1F
100
AcDbEntity
  8
0
 67
0
100
AcDbLine
 10
132.0
 20
30.0
 11
132.0
 21
33.0
  0
LINE
  5
6F5
330
1F
100
AcDbEntity
  8
0
 67
0
100
AcDbLine
 10
135.0
 20
30.0
 11
135.0
 21
32.0
  0
LINE
  5
6F6
330
1F
100
AcDbEntity
  8
0
 67
0
100
AcDbLine
 10
138.0
 20
30.0
 11
138.0
 21
32.0
  0
LINE
  5
6F7
330
1F
100
AcDbEntity
  8
0
 67
0
100
AcDbLine
 10
141.0
 20
30.0
 11
141.0
 21
32.0
  0
LINE
  5
6F8
330
1F
100
AcDbEntity
  8
0
 67
0
100
AcDbLine
 10
144.0
 20
30.0
 11
144.0
 21
32.0
  0
LINE
  5
6F9
330
1F
100
AcDbEntity
  8
0
 67
0
100
AcDbLine
 10
147.0
 20
30.0
 11
147.0
 21
36.0
  0
TEXT
  5
6FA
330
1F
100
AcDbEntity
  8
SCAN
 67
0
100
AcDbText
 10
147.5
 20
37.0
 40
1.5
  1
50
 50
90.0
 51
0.0
  7
STANDARD
 41
1.0
 71
0
 72
0
 11
147.5
 21
37.0
100
AcDbText
 73
0
  0
LINE
  5
6FB
330
1F
100
AcDbEntity
  8
0
 67
0
100
AcDbLine
 10
150.0
 20
30.0
 11
150.0
 21
32.0
  0
LINE
  5
6FC
330
1F
100
AcDbEntity
  8
0
 67
0
100
AcDbLine
 10
153.0
 20
30.0
 11
153.0
 21
32.0
  0
LINE
  5
6FD
330
1F
100
AcDbEntity
  8
0
 67
0
100
AcDbLine
 10
156.0
 20
30.0
 11
156.0
 21
32.0
  0
LINE
  5
6FE
330
1F
100
AcDbEntity
  8
0
 67
0
100
AcDbLine
 10
159.0
 20
30.0
 11
159.0
 21
32.0
  0
LINE
  5
6FF
330
1F
100
AcDbEntity
  8
0
 67
0
100
AcDbLine
 10
162.0
 20
30.0
 11
162.0
 21
33.0
  0
LINE
  5
700
330
1F
100
AcDbEntity
  8
0
 67
0
100
AcDbLine
 10
165.0
 20
30.0
 11
165.0
 21
32.0
  0
LINE
  5
701
330
1F
100
AcDbEntity
  8
0
 67
0
100
AcDbLine
 10
168.0
 20
30.0
 11
168.0
 21
32.0
  0
LINE
  5
702
330
1F
100
AcDbEntity
  8
0
 67
0
100
AcDbLine
 10
171.0
 20
30.0
 11
171.0
 21
32.0
  0
LINE
  5
703
330
1F
100
AcDbEntity
  8
0
 67
0
100
AcDbLine
 10
174.0
 20
30.0
 11
174.0
 21
32.0
  0
LINE
  5
704
330
1F
100
AcDbEntity
  8
0
 67
0
100
AcDbLine
 10
177.0
 20
30.0
 11
177.0
 21
36.0
  0
TEXT
  5
705
330
1F
100
AcDbEntity
  8
SCAN
 67
0
100
AcDbText
 10
177.5
 20
37.0
 40
1.5
  1
60
 50
90.0
 51
0.0
  7
STANDARD
 41
1.0
 71
0
 72
0
 11
177.5
 21
37.0
100
AcDbText
 73
0
  0
LINE
  5
706
330
1F
100
AcDbEntity
  8
0
 67
0
100
AcDbLine
 10
180.0
 20
30.0
 11
180.0
 21
32.0
  0
LINE
  5
707
330
1F
100
AcDbEntity
  8
0
 67
0
100
AcDbLine
 10
183.0
 20
30.0
 11
183.0
 21
32.0
  0
LINE
  5
708
330
1F
100
AcDbEntity
  8
0
 67
0
100
AcDbLine
 10
186.0
 20
30.0
 11
186.0
 21
32.0
  0
LINE
  5
709
330
1F
100
AcDbEntity
  8
0
 67
0
100
AcDbLine
 10
189.0
 20
30.0
 11
189.0
 21
32.0
  0
LINE
  5
70A
330
1F
100
AcDbEntity
  8
0
 67
0
100
AcDbLine
 10
192.0
 20
30.0
 11
192.0
 21
33.0
  0
LINE
  5
70B
330
1F
100
AcDbEntity
  8
0
 67
0
100
AcDbLine
 10
195.0
 20
30.0
 11
195.0
 21
32.0
  0
LINE
  5
70C
330
1F
100
AcDbEntity
  8
0
 67
0
100
AcDbLine
 10
198.0
 20
30.0
 11
198.0
 21
32.0
  0
LINE
  5
70D
330
1F
100
AcDbEntity
  8
0
 67
0
100
AcDbLine
 10
201.0
 20
30.0
 11
201.0
 21
32.0
  0
LINE
  5
70E
330
1F
100
AcDbEntity
  8
0
 67
0
100
AcDbLine
 10
204.0
 20
30.0
 11
204.0
 21
32.0
  0
LINE
  5
70F
330
1F
100
AcDbEntity
  8
0
 67
0
100
AcDbLine
 10
207.0
 20
30.0
 11
207.0
 21
36.0
  0
TEXT
  5
710
330
1F
100
AcDbEntity
  8
SCAN
 67
0
100
AcDbText
 10
207.5
 20
37.0
 40
1.5
  1
70
 50
90.0
 51
0.0
  7
STANDARD
 41
1.0
 71
0
 72
0
 11
207.5
 21
37.0
100
AcDbText
 73
0
  0
LINE
  5
711
330
1F
100
AcDbEntity
  8
0
 67
0
100
AcDbLine
 10
210.0
 20
30.0
 11
210.0
 21
32.0
  0
LINE
  5
712
330
1F
100
AcDbEntity
  8
0
 67
0
100
AcDbLine
 10
213.0
 20
30.0
 11
213.0
 21
32.0
  0
LINE
  5
713
330
1F
100
AcDbEntity
  8
0
 67
0
100
AcDbLine
 10
216.0
 20
30.0
 11
216.0
 21
32.0
  0
LINE
  5
714
330
1F
100
AcDbEntity
  8
0
 67
0
100
AcDbLine
 10
219.0
 20
30.0
 11
219.0
 21
32.0
  0
LINE
  5
715
330
1F
100
AcDbEntity
  8
0
 67
0
100
AcDbLine
 10
222.0
 20
30.0
 11
222.0
 21
33.0
  0
LINE
  5
716
330
1F
100
AcDbEntity
  8
0
 67
0
100
AcDbLine
 10
225.0
 20
30.0
 11
225.0
 21
32.0
  0
LINE
  5
717
330
1F
100
AcDbEntity
  8
0
 67
0
100
AcDbLine
 10
228.0
 20
30.0
 11
228.0
 21
32.0
  0
LINE
  5
718
330
1F
100
AcDbEntity
  8
0
 67
0
100
AcDbLine
 10
231.0
 20
30.0
 11
231.0
 21
32.0
  0
LINE
  5
719
330
1F
100
AcDbEntity
  8
0
 67
0
100
AcDbLine
 10
234.0
 20
30.0
 11
234.0
 21
32.0
  0
LINE
  5
71A
330
1F
100
AcDbEntity
  8
0
 67
0
100
AcDbLine
 10
237.0
 20
30.0
 11
237.0
 21
36.0
  0
TEXT
  5
71B
330
1F
100
AcDbEntity
  8
SCAN
 67
0
100
AcDbText
 10
237.5
 20
37.0
 40
1.5
  1
80
 50
90.0
 51
0.0
  7
STANDARD
 41
1.0
 71
0
 72
0
 11
237.5
 21
37.0
100
AcDbText
 73
0
  0
LINE
  5
71C
330
1F
100
AcDbEntity
  8
0
 67
0
100
AcDbLine
 10
240.0
 20
30.0
 11
240.0
 21
32.0
  0
LINE
  5
71D
330
1F
100
AcDbEntity
  8
0
 67
0
100
AcDbLine
 10
243.0
 20
30.0
 11
243.0
 21
32.0
  0
LINE
  5
71E
330
1F
100
AcDbEntity
  8
0
 67
0
100
AcDbLine
 10
246.0
 20
30.0
 11
246.0
 21
32.0
  0
LINE
  5
71F
330
1F
100
AcDbEntity
  8
0
 67
0
100
AcDbLine
 10
249.0
 20
30.0
 11
249.0
 21
32.0
  0
LINE
  5
720
330
1F
100
AcDbEntity
  8
0
 67
0
100
AcDbLine
 10
252.0
 20
30.0
 11
252.0
 21
33.0
  0
LINE
  5
721
330
1F
100
AcDbEntity
  8
0
 67
0
100
AcDbLine
 10
255.0
 20
30.0
 11
255.0
 21
32.0
  0
LINE
  5
722
330
1F
100
AcDbEntity
  8
0
 67
0
100
AcDbLine
 10
258.0
 20
30.0
 11
258.0
 21
32.0
  0
LINE
  5
723
330
1F
100
AcDbEntity
  8
0
 67
0
100
AcDbLine
 10
261.0
 20
30.0
 11
261.0
 21
32.0
  0
LINE
  5
724
330
1F
100
AcDbEntity
  8
0
 67
0
100
AcDbLine
 10
264.0
 20
30.0
 11
264.0
 21
32.0
  0
LINE
  5
725
330
1F
100
AcDbEntity
  8
0
 67
0
100
AcDbLine
 10
267.0
 20
30.0
 11
267.0
 21
36.0
  0
TEXT
  5
726
330
1F
100
AcDbEntity
  8
SCAN
 67
0
100
AcDbText
 10
267.5
 20
37.0
 40
1.5
  1
90
 50
90.0
 51
0.0
  7
STANDARD
 41
1.0
 71
0
 72
0
 11
267.5
 21
37.0
100
AcDbText
 73
0
  0
LINE
  5
727
330
1F
100
AcDbEntity
  8
0
 67
0
100
AcDbLine
 10
270.0
 20
30.0
 11
270.0
 21
32.0
  0
LINE
  5
728
330
1F
100
AcDbEntity
  8
0
 67
0
100
AcDbLine
 10
273.0
 20
30.0
 11
273.0
 21
32.0
  0
LINE
  5
729
330
1F
100
AcDbEntity
  8
0
 67
0
100
AcDbLine
 10
276.0
 20
30.0
 11
276.0
 21
32.0
  0
LINE
  5
72A
330
1F
100
AcDbEntity
  8
0
 67
0
100
AcDbLine
 10
279.0
 20
30.0
 11
279.0
 21
32.0
  0
LINE
  5
72B
330
1F
100
AcDbEntity
  8
0
 67
0
100
AcDbLine
 10
282.0
 20
30.0
 11
282.0
 21
33.0
  0
LINE
  5
72C
330
1F
100
AcDbEntity
  8
0
 67
0
100
AcDbLine
 10
285.0
 20
30.0
 11
285.0
 21
32.0
  0
LINE
  5
72D
330
1F
100
AcDbEntity
  8
0
 67
0
100
AcDbLine
 10
288.0
 20
30.0
 11
288.0
 21
32.0
  0
LINE
  5
72E
330
1F
100
AcDbEntity
  8
0
 67
0
100
AcDbLine
 10
291.0
 20
30.0
 11
291.0
 21
32.0
  0
LINE
  5
72F
330
1F
100
AcDbEntity
  8
0
 67
0
100
AcDbLine
 10
294.0
 20
30.0
 11
294.0
 21
32.0
  0
LINE
  5
730
330
1F
100
AcDbEntity
  8
0
 67
0
100
AcDbLine
 10
297.0
 20
30.0
 11
297.0
 21
36.0
  0
TEXT
  5
731
330
1F
100
AcDbEntity
  8
SCAN
 67
0
100
AcDbText
 10
297.5
 20
37.0
 40
1.5
  1
100
 50
90.0
 51
0.0
  7
STANDARD
 41
1.0
 71
0
 72
0
 11
297.5
 21
37.0
100
AcDbText
 73
0
  0
ENDSEC
  0
SECTION
  2
OBJECTS
  0
DICTIONARY
  5
C
330
0
100
AcDbDictionary
281
1
  3
ACAD_COLOR
350
4E1
  3
ACAD_GROUP
350
4E2
  3
ACAD_LAYOUT
350
4E3
  3
ACAD_MATERIAL
350
4E4
  3
ACAD_MLEADERSTYLE
350
4E5
  3
ACAD_MLINESTYLE
350
4E6
  3
ACAD_PLOTSETTINGS
350
4E7
  3
ACAD_PLOTSTYLENAME
350
4E9
  3
ACAD_SCALELIST
350
4EA
  3
ACAD_TABLESTYLE
350
4EB
  3
ACAD_VISUALSTYLE
350
4EC
  0
DICTIONARY
  5
4E1
330
C
100
AcDbDictionary
281
1
  0
DICTIONARY
  5
4E2
330
C
100
AcDbDictionary
281
1
  0
DICTIONARY
  5
4E3
330
C
100
AcDbDictionary
281
1
  3
Model
350
4ED
  3
Layout1
350
4EE
  0
DICTIONARY
  5
4E4
330
C
100
AcDbDictionary
281
1
  3
ByBlock
350
56B
  3
ByLayer
350
56C
  3
Global
350
56D
  0
DICTIONARY
  5
4E5
330
C
100
AcDbDictionary
281
1
  3
Standard
350
56E
  0
DICTIONARY
  5
4E6
330
C
100
AcDbDictionary
281
1
  3
STANDARD
350
56F
  0
DICTIONARY
  5
4E7
330
C
100
AcDbDictionary
281
1
  0
ACDBPLACEHOLDER
  5
4E8
330
4E9
  0
ACDBDICTIONARYWDFLT
  5
4E9
330
C
100
AcDbDictionary
281
1
  3
Normal
350
4E8
100
AcDbDictionaryWithDefault
340
4E8
  0
DICTIONARY
  5
4EA
330
C
100
AcDbDictionary
281
1
  0
DICTIONARY
  5
4EB
330
C
100
AcDbDictionary
281
1
  0
DICTIONARY
  5
4EC
330
C
100
AcDbDictionary
281
1
  0
LAYOUT
  5
4ED
330
4E3
100
AcDbPlotSettings
  1

  2
DWFx ePlot (XPS Compatible).pc3
  4
ANSI_A_(8.50_x_11.00_Inches)
  6

 40
5.8
 41
17.8
 42
5.8
 43
17.8
 44
215.9
 45
279.4
 46
0.0
 47
0.0
 48
0.0
 49
0.0
140
0.0
141
0.0
142
1.0
143
14.53
 70
11952
 72
0
 73
1
 74
0
  7

 75
0
147
0.069
148
114.98
149
300.29
100
AcDbLayout
  1
Model
 70
1
 71
0
 10
0.0
 20
0.0
 11
12.0
 21
9.0
 12
0.0
 22
0.0
 32
0.0
 14
0.0
 24
0.0
 34
0.0
 15
0.0
 25
0.0
 35
0.0
146
0.0
 13
0.0
 23
0.0
 33
0.0
 16
1.0
 26
0.0
 36
0.0
 17
0.0
 27
1.0
 37
0.0
 76
0
330
1F
  0
LAYOUT
  5
4EE
330
4E3
100
AcDbPlotSettings
  1

  2
DWFx ePlot (XPS Compatible).pc3
  4
ANSI_A_(8.50_x_11.00_Inches)
  6

 40
5.8
 41
17.8
 42
5.8
 43
17.8
 44
215.9
 45
279.4
 46
0.0
 47
0.0
 48
0.0
 49
0.0
140
0.0
141
0.0
142
1.0
143
1.0
 70
688
 72
0
 73
1
 74
5
  7
acad.ctb
 75
16
147
1.0
148
0.0
149
0.0
100
AcDbLayout
  1
Layout1
 70
1
 71
1
 10
-0.7
 20
-0.23
 11
10.3
 21
8.27
 12
0.0
 22
0.0
 32
0.0
 14
0.63
 24
0.8
 34
0.0
 15
9.0
 25
7.2
 35
0.0
146
0.0
 13
0.0
 23
0.0
 33
0.0
 16
1.0
 26
0.0
 36
0.0
 17
0.0
 27
1.0
 37
0.0
 76
0
330
58
  0
MATERIAL
  5
56B
102
{ACAD_REACTORS
330
4E4
102
}
330
4E4
100
AcDbMaterial
  1
ByBlock
 94
63
  0
MATERIAL
  5
56C
102
{ACAD_REACTORS
330
4E4
102
}
330
4E4
100
AcDbMaterial
  1
ByLayer
 94
63
  0
MATERIAL
  5
56D
102
{ACAD_REACTORS
330
4E4
102
}
330
4E4
100
AcDbMaterial
  1
Global
 94
63
  0
MLEADERSTYLE
  5
56E
102
{ACAD_REACTORS
330
4E5
102
}
330
4E5
100
AcDbMLeaderStyle
179
2
170
2
171
1
172
0
 90
2
 40
0.0
 41
0.0
173
1
 91
-1056964608
340
14
 92
-2
290
1
 42
2.0
291
1
 43
8.0
  3
Standard
341
0
 44
4.0
300

342
11
174
1
178
1
175
1
176
0
 93
-1056964608
 45
4.0
292
0
297
0
 46
4.0
343
0
 94
-1056964608
 47
1.0
 49
1.0
140
1.0
293
1
141
0.0
294
1
177
0
142
1.0
295
0
296
0
143
3.75
271
0
272
9
273
9
  0
MLINESTYLE
  5
56F
102
{ACAD_REACTORS
330
4E6
102
}
330
4E6
100
AcDbMlineStyle
  2
STANDARD
 70
0
  3

 62
256
 51
90.0
 52
90.0
 71
2
 49
0.5
 62
256
  6
BYLAYER
 49
-0.5
 62
256
  6
BYLAYER
  0
ENDSEC
  0
EOF
